<svg width="118" height="71" viewBox="0 0 118 71" fill="none" xmlns="http://www.w3.org/2000/svg">
<path d="M57.703 9.67801C58.4339 8.18196 60.5661 8.18196 61.297 9.67801L67.6518 22.6847C67.9432 23.2812 68.5117 23.6942 69.169 23.7871L83.5029 25.8115C85.1516 26.0444 85.8104 28.0721 84.6135 29.2296L74.2071 39.2926C73.7299 39.7541 73.5127 40.4224 73.6276 41.0763L76.1316 55.3342C76.4196 56.9741 74.6947 58.2274 73.224 57.4467L60.4377 50.6593C59.8513 50.348 59.1487 50.348 58.5623 50.6593L45.776 57.4467C44.3053 58.2274 42.5804 56.9741 42.8684 55.3342L45.3724 41.0763C45.4873 40.4224 45.2701 39.7541 44.7929 39.2926L34.3865 29.2296C33.1896 28.0721 33.8484 26.0444 35.4971 25.8115L49.8309 23.7871C50.4883 23.6942 51.0568 23.2812 51.3482 22.6847L57.703 9.67801Z" fill="#162842"/>
<path d="M52.646 43V31.48L53.906 32.74H50.126V30.4H55.562V43H52.646ZM62.9708 43.216C61.9148 43.216 60.9908 43.06 60.1988 42.748C59.4068 42.424 58.7888 41.974 58.3448 41.398C57.9008 40.81 57.6788 40.126 57.6788 39.346C57.6788 38.566 57.8948 37.906 58.3268 37.366C58.7708 36.814 59.3888 36.4 60.1808 36.124C60.9728 35.836 61.9028 35.692 62.9708 35.692C64.0508 35.692 64.9868 35.836 65.7788 36.124C66.5828 36.4 67.2008 36.814 67.6328 37.366C68.0768 37.906 68.2988 38.566 68.2988 39.346C68.2988 40.126 68.0768 40.81 67.6328 41.398C67.1888 41.974 66.5648 42.424 65.7608 42.748C64.9688 43.06 64.0388 43.216 62.9708 43.216ZM62.9708 41.074C63.7028 41.074 64.2788 40.912 64.6988 40.588C65.1308 40.264 65.3468 39.82 65.3468 39.256C65.3468 38.692 65.1308 38.254 64.6988 37.942C64.2788 37.618 63.7028 37.456 62.9708 37.456C62.2508 37.456 61.6808 37.618 61.2608 37.942C60.8408 38.254 60.6308 38.692 60.6308 39.256C60.6308 39.82 60.8408 40.264 61.2608 40.588C61.6808 40.912 62.2508 41.074 62.9708 41.074ZM62.9708 37.168C61.9988 37.168 61.1468 37.036 60.4148 36.772C59.6948 36.508 59.1308 36.124 58.7228 35.62C58.3268 35.104 58.1288 34.492 58.1288 33.784C58.1288 33.04 58.3328 32.404 58.7408 31.876C59.1488 31.336 59.7188 30.922 60.4508 30.634C61.1828 30.334 62.0228 30.184 62.9708 30.184C63.9428 30.184 64.7888 30.334 65.5088 30.634C66.2408 30.922 66.8108 31.336 67.2188 31.876C67.6388 32.404 67.8488 33.04 67.8488 33.784C67.8488 34.492 67.6448 35.104 67.2368 35.62C66.8408 36.124 66.2768 36.508 65.5448 36.772C64.8128 37.036 63.9548 37.168 62.9708 37.168ZM62.9708 35.458C63.5828 35.458 64.0628 35.32 64.4108 35.044C64.7708 34.768 64.9508 34.39 64.9508 33.91C64.9508 33.406 64.7648 33.016 64.3928 32.74C64.0328 32.464 63.5588 32.326 62.9708 32.326C62.3948 32.326 61.9268 32.464 61.5668 32.74C61.2068 33.016 61.0268 33.406 61.0268 33.91C61.0268 34.39 61.2008 34.768 61.5488 35.044C61.8968 35.32 62.3708 35.458 62.9708 35.458Z" fill="#CDE2FF"/>
</svg>
