<svg width="118" height="71" viewBox="0 0 118 71" fill="none" xmlns="http://www.w3.org/2000/svg">
<path d="M117.839 34.2048C117.777 33.793 117.715 33.3812 117.641 32.9694C117.616 32.8196 117.566 32.6574 117.48 32.5201C116.092 30.0868 114.692 27.6409 113.291 25.2075C113.031 24.7582 112.759 24.6459 112.251 24.7582C112.052 24.8082 111.866 24.8581 111.681 24.908C111.247 25.0078 110.912 24.883 110.702 24.4962C110.231 23.6351 109.76 22.7616 109.301 21.8881C109.14 21.5761 109.165 21.2766 109.339 20.9771C109.933 19.8665 110.516 18.7683 111.111 17.6577C111.259 17.3832 111.309 17.1086 111.234 16.7967C110.59 14.1137 109.958 11.4307 109.339 8.73527C109.202 8.14876 108.62 7.84926 108.087 8.17371C107.901 8.28602 107.703 8.38586 107.517 8.48569C107.183 8.67287 106.848 8.64791 106.551 8.39833C106.129 8.0614 105.708 7.72447 105.299 7.38754C104.853 7.01317 104.816 6.51401 105.225 6.08973C106.043 5.2162 106.873 4.35515 107.691 3.49411C107.864 3.30692 108.05 3.11974 108.223 2.93255C108.459 2.68297 108.508 2.38348 108.409 2.07151C108.236 1.54739 108.038 1.04823 107.839 0.524117C107.765 0.324454 107.616 0.174707 107.418 0.0873542V0.0873542C107.317 0.0363359 107.21 0 107.097 0C107.088 0 107.08 0 107.071 0C106.965 0 106.864 0.0374243 106.76 0.058598C106.748 0.0610109 106.736 0.0623948 106.724 0.0623948C106.315 0.112311 105.894 0.149747 105.485 0.187184C104.989 0.2371 104.68 0.611468 104.742 1.11063C104.754 1.26037 104.791 1.41012 104.804 1.55987C104.878 2.07151 104.618 2.47083 104.122 2.58314C103.75 2.6705 103.366 2.75785 102.994 2.82024C102.784 2.85768 102.598 2.94503 102.449 3.09478C100.69 4.69209 98.9302 6.28939 97.1706 7.8867C96.7122 8.2985 96.7493 8.89749 97.2202 9.2469C97.4308 9.39665 97.6167 9.58384 97.8274 9.73358C97.9761 9.83341 98.0132 9.94572 97.9389 10.108C97.8398 10.3326 97.7654 10.5572 97.6787 10.7818C97.5795 11.0813 97.3689 11.256 97.0715 11.3558C96.6998 11.4682 96.3404 11.6054 95.9687 11.6928C95.5722 11.7926 95.3492 12.0297 95.2005 12.4041C94.9403 13.1154 94.6429 13.8142 94.3703 14.513C94.2216 14.9123 93.887 15.1245 93.4781 15.1245C92.7966 15.112 92.1151 15.1245 91.4212 15.1245C90.9132 15.1245 90.6777 15.2867 90.5042 15.7609C90.2564 16.4223 90.0086 17.0837 89.7484 17.7451C89.5377 18.2817 89.1412 18.4564 88.6084 18.2817C88.0756 18.107 87.5428 17.9198 86.9976 17.7451C86.6878 17.6328 86.4028 17.6702 86.1302 17.8574C85.5974 18.2317 85.0646 18.5936 84.5318 18.9555C83.7883 19.4547 83.0572 19.9663 82.3138 20.4655C81.8305 20.8024 81.7438 21.2392 82.0907 21.7259C82.2146 21.9006 82.3385 22.0628 82.4501 22.2375C82.7103 22.6243 82.7227 22.9363 82.4501 23.3107C81.8181 24.1842 81.1738 25.0702 80.5294 25.9437C80.2073 26.3805 79.8727 26.4554 79.3895 26.2432C78.993 26.0685 78.5841 25.9063 78.1999 25.7066C77.7539 25.482 77.2954 25.3448 76.7997 25.4695V25.4695C76.7209 25.496 76.6342 25.4856 76.5512 25.4923C75.9981 25.5372 75.4456 25.5729 74.9039 25.6193C74.0613 25.6942 73.2063 25.7815 72.3637 25.8314C71.8433 25.8564 71.3477 25.9687 70.8768 26.1808C69.8979 26.6051 68.8943 27.0045 67.9154 27.4163C67.556 27.566 67.2339 27.5535 66.9489 27.279C66.6639 27.0045 66.6267 26.68 66.763 26.3181C66.7878 26.2432 66.8249 26.1684 66.8497 26.0935C67.1719 25.2824 67.4941 24.4587 67.8038 23.6476C68.0269 23.0736 67.8534 22.6743 67.2958 22.4372C66.2054 21.9754 65.115 21.5387 64.037 21.0645C63.6528 20.9022 63.3307 20.9397 62.9837 21.1768C60.964 22.5744 58.9566 23.9721 56.9245 25.3572C56.5528 25.6068 56.3917 25.9188 56.4041 26.3555C56.4289 26.7798 56.4165 27.2166 56.4041 27.6409C56.3917 28.1276 56.1191 28.4146 55.6482 28.4894C55.5367 28.5019 55.4128 28.5144 55.2889 28.5144C54.7065 28.5144 54.1241 28.5269 53.5294 28.5144C53.1824 28.5144 52.8231 28.739 52.7611 29.2007C52.7487 29.3006 52.7735 29.4129 52.7859 29.5252C52.8726 30.1117 52.5876 30.4986 52.0053 30.5734C51.6955 30.6109 51.3733 30.6608 51.0635 30.6857C50.6298 30.7232 50.3325 30.9104 50.159 31.3346C49.8244 32.1583 49.4403 32.9569 49.081 33.768C48.8579 34.2797 48.6225 34.7913 48.3995 35.2905C48.2755 35.565 48.0773 35.7647 47.7923 35.8021C47.5512 35.8281 47.3041 35.824 47.0469 35.8191C46.8683 35.8157 46.7332 35.651 46.7762 35.4777V35.4777C47.1603 34.0925 47.5445 32.7073 47.9162 31.3346C48.0773 30.7731 48.226 30.1991 48.3871 29.6375C48.5358 29.0884 48.3375 28.7265 47.8047 28.5394C47.6312 28.477 47.4701 28.4271 47.2966 28.3896C47.2099 28.3647 47.1232 28.3771 47.0364 28.3896C46.7019 28.4395 46.5284 28.6517 46.4045 28.9512C45.8221 30.3613 45.2397 31.7714 44.6574 33.1815C44.5211 33.506 44.3971 33.8304 44.2485 34.1424C44.0006 34.654 43.4059 34.7788 42.9722 34.417C42.8607 34.3296 42.7615 34.2298 42.6624 34.1424C42.0305 33.5559 41.3861 32.9694 40.7542 32.3829C40.4196 32.0834 40.0974 32.0584 39.7257 32.2955C39.5522 32.4078 39.3788 32.5201 39.2053 32.6449C38.9451 32.8321 38.6849 32.8696 38.3627 32.8072C36.3182 32.3454 34.2613 31.9087 32.2167 31.4594C32.0569 31.4211 31.8924 31.3828 31.7232 31.3416C31.5555 31.3007 31.4624 31.1104 31.5476 30.9603V30.9603C31.6468 30.7731 31.7583 30.5984 31.845 30.4112C31.9689 30.1616 31.9813 29.8996 31.8326 29.6625C31.5848 29.2881 31.2131 29.051 30.7918 28.9137C30.5811 28.8513 30.3581 28.9137 30.1722 29.0635C30.0855 29.1384 30.0111 29.2007 29.9244 29.2756C29.2677 29.8746 28.6109 30.4611 27.9666 31.0601C27.6692 31.3346 27.3471 31.4594 26.9505 31.4594C25.9593 31.447 24.968 31.4594 23.9767 31.4594C23.5678 31.4594 23.1589 31.4594 22.7624 31.4594C22.465 31.4594 22.18 31.3846 22.0065 31.1225C21.7215 30.7232 21.4613 30.3114 21.2011 29.8996C21.0276 29.625 21.0276 29.3255 21.2135 29.051C21.6348 28.4146 22.0685 27.7781 22.5269 27.1667C22.8739 26.705 23.481 26.7424 23.828 27.1916C23.8776 27.254 23.9147 27.3289 23.9643 27.3913C24.3112 27.9404 24.6458 28.4894 25.0051 29.026C25.0795 29.1508 25.191 29.2631 25.3149 29.338C25.6123 29.5377 25.9221 29.4753 26.2071 29.2881C26.8142 28.8763 27.4338 28.477 28.0533 28.0776C28.4994 27.7906 28.6109 27.4911 28.4375 26.9795C27.8427 25.1451 27.2355 23.3107 26.6284 21.4763C26.4797 21.0395 26.2443 20.8648 25.7858 20.8648C25.2158 20.8648 24.6582 20.8648 24.0882 20.8648C23.5306 20.8648 23.2332 21.1768 23.2332 21.7383C23.2332 22.25 23.2332 22.7616 23.2332 23.2608C23.2332 23.2738 23.2331 23.2867 23.2328 23.2995C23.2287 23.476 23.0876 23.6351 22.9111 23.6351V23.6351C22.688 23.6351 22.4774 23.6476 22.2543 23.6351C21.9074 23.6102 21.6472 23.7474 21.4117 23.9845C20.2594 25.17 19.0946 26.3431 17.9299 27.5036C17.682 27.7532 17.5705 28.0152 17.5829 28.3647C17.5953 28.739 17.5953 29.1259 17.5829 29.5002C17.5705 29.912 17.3103 30.224 16.9138 30.2864C16.7651 30.3114 16.6164 30.3239 16.4677 30.3239C15.2038 30.3239 13.9275 30.3239 12.6637 30.3239C12.3787 30.3239 12.1556 30.4112 11.9326 30.5984C10.6315 31.7465 9.31807 32.8945 8.00462 34.0426C7.58332 34.4045 7.52137 34.7289 7.76919 35.2406C8.00462 35.7148 8.22766 36.189 8.47548 36.6632C8.66135 37.0001 8.64895 37.3121 8.47548 37.6615C8.0294 38.535 7.59572 39.421 7.16203 40.3195C6.94794 40.7734 6.7236 41.0622 6.09768 40.9889C5.9644 40.9732 5.84647 40.881 5.71228 40.881V40.881C5.60076 40.881 5.48924 40.881 5.39011 40.906C4.99359 41.0183 4.80773 41.3053 4.80773 41.7671C4.80773 43.3269 4.80773 44.8868 4.80773 46.4342C4.80773 46.6463 4.85729 46.821 4.94403 47.0082C5.19185 47.4699 5.42728 47.9192 5.66271 48.3809C6.13357 49.2794 6.61682 50.1779 7.07529 51.0763C7.3355 51.588 7.14964 52.0747 6.61682 52.2993C6.56726 52.3242 6.5053 52.3367 6.45574 52.3617C5.20424 52.8234 3.94035 53.2851 2.68886 53.7344C1.99496 53.9839 1.28867 54.246 0.59477 54.4956C0.161084 54.6578 0 54.8824 0 55.3566C0 55.419 0 55.4814 0 55.5313C0.0247821 56.1054 0.0619551 56.6919 0.0743461 57.2659C0.0867372 57.6278 0.173474 57.9398 0.35934 58.2517C1.70997 60.6477 3.03581 63.0561 4.37404 65.4521C4.73338 66.0885 5.09272 66.7125 5.43967 67.3614C5.63793 67.7358 5.92292 67.9229 6.34422 67.898C6.70356 67.873 7.0629 67.898 7.40985 67.898C7.83114 67.8855 8.15331 67.5985 8.19049 67.1867C8.3144 65.8764 8.42592 64.5661 8.54983 63.2558C8.59939 62.7691 8.82243 62.4946 9.30568 62.3948C9.9748 62.2575 10.6439 62.1077 11.313 61.9954C11.6972 61.933 11.9326 61.7459 12.1184 61.4089C12.4902 60.7101 12.8619 60.0238 13.2584 59.3374C13.3947 59.1003 13.4567 58.8507 13.4567 58.5637C13.4443 58.1769 13.4567 57.79 13.4567 57.3907C13.4567 57.0912 13.4443 56.7917 13.4567 56.4922C13.4691 56.018 13.7665 55.6686 14.2001 55.6187C14.8445 55.5563 15.5012 55.4939 16.1579 55.444C16.9757 55.3816 17.8059 55.3442 18.6114 55.2443C19.107 55.1819 19.4416 55.3441 19.7389 55.7185C20.47 56.6544 21.2259 57.5654 21.9693 58.4888C22.1304 58.701 22.3287 58.8507 22.5641 58.963C23.605 59.4872 24.6334 60.0113 25.6743 60.5354C25.9964 60.6976 26.3062 60.8599 26.6284 61.0096C27.0745 61.2217 27.4834 61.072 27.7188 60.6477C27.7807 60.5354 27.8427 60.4231 27.8923 60.2983C28.3631 59.3624 28.8464 58.4389 29.3172 57.503C29.4907 57.1536 29.7509 56.9664 30.135 56.9664C30.2094 56.9664 30.2713 56.9664 30.3457 56.9664C32.6504 56.9664 34.9676 56.9664 37.2723 56.9664C37.7803 56.9664 38.1149 57.1411 38.3379 57.6153C38.5486 58.077 38.8212 58.5138 39.0442 58.963C39.2053 59.275 39.4283 59.4747 39.7753 59.5496C40.9648 59.8241 42.1544 60.1361 43.3563 60.4106C43.7776 60.5104 44.0502 60.7101 44.2485 61.1094C45.0415 62.7566 45.8593 64.3789 46.6647 66.0136C46.801 66.3007 46.9993 66.5128 47.2843 66.6626C48.7092 67.4238 50.1218 68.1975 51.5468 68.9712C52.7115 69.5951 53.8639 70.2315 55.0287 70.868C55.4004 71.0676 55.7226 71.0427 56.0447 70.7806C56.2182 70.6309 56.4041 70.4936 56.5775 70.3563C57.5688 69.5577 58.5601 68.759 59.5514 67.9728C59.6753 67.873 59.8364 67.7732 59.9851 67.7358C60.2949 67.6484 60.5675 67.7482 60.8029 67.9853C61.1003 68.2848 61.3853 68.5843 61.6827 68.8838C61.9181 69.1209 62.1783 69.2207 62.5253 69.1334C62.7979 69.071 63.0952 69.0336 63.3678 68.9837C64.198 68.8464 65.0282 68.6966 65.8584 68.5594C66.4284 68.4595 66.6639 68.1101 66.5895 67.5361C66.54 67.0494 66.4904 66.5627 66.4532 66.076C66.416 65.4646 66.9489 65.0278 67.5312 65.2025C68.2251 65.4147 68.9066 65.6393 69.6005 65.8639C69.836 65.9388 69.9971 66.0761 70.121 66.2882C70.2201 66.4754 70.3316 66.6501 70.4307 66.8373C70.5918 67.1118 70.5918 67.0993 70.9016 67.0494C71.8805 66.8747 72.847 66.7249 73.8259 66.5253C74.1604 66.4629 74.4454 66.5253 74.7304 66.7C75.2261 66.9995 75.7465 67.2865 76.2545 67.586C76.4652 67.7108 76.6882 67.7482 76.936 67.7108C77.7167 67.586 78.5097 67.4862 79.2903 67.3739C79.8232 67.299 80.3436 67.2241 80.8764 67.1492C81.1118 67.1118 81.2853 66.9995 81.4092 66.7998C81.5207 66.6251 81.6323 66.4504 81.7438 66.2757C82.1031 65.7017 82.4625 65.1276 82.8218 64.5536C83.0572 64.1792 83.3422 64.0545 83.7759 64.1418C84.2592 64.2292 84.7548 64.304 85.2381 64.4164C85.5974 64.5037 85.87 64.3914 86.1302 64.1543C86.6011 63.705 87.0595 63.2558 87.5428 62.8315C87.865 62.5445 87.9393 62.2076 87.865 61.8082C87.6295 60.6103 87.3941 59.3998 87.1463 58.2018C87.0471 57.7152 87.1711 57.4281 87.5924 57.1661C88.7695 56.4673 89.9467 55.7684 91.1238 55.0696C91.5327 54.8325 91.8549 54.8575 92.2142 55.1694C92.6975 55.5688 93.1683 55.9806 93.6392 56.3924C94.6057 57.216 95.5598 58.0271 96.5139 58.8507C96.7493 59.0504 96.9848 59.1502 97.2945 59.1502C97.6663 59.1502 98.0504 59.1752 98.4221 59.1877C99.686 59.2251 100.938 59.2501 102.201 59.2875C102.598 59.3 102.895 59.1502 103.056 58.7759C103.168 58.5263 103.292 58.2642 103.416 58.0146C103.577 57.6902 103.849 57.5155 104.196 57.528C104.556 57.5404 104.816 57.7401 104.94 58.0895C105.274 59.0504 105.621 60.0113 105.944 60.9722C106.092 61.3964 105.882 61.8207 105.46 61.9954C105.349 62.0453 105.237 62.0703 105.126 62.1077C104.998 62.1451 104.872 62.1825 104.746 62.2198C104.284 62.3569 103.958 62.7542 103.887 63.2308V63.2308C103.837 63.5553 103.924 63.8174 104.159 64.042C104.642 64.4912 105.138 64.9529 105.621 65.4022C105.82 65.5894 106.043 65.6767 106.315 65.6642C106.749 65.6518 107.183 65.6518 107.629 65.6642C107.988 65.6767 108.248 65.5395 108.471 65.2524C108.806 64.8032 109.14 64.354 109.487 63.9172C109.673 63.6801 109.76 63.443 109.723 63.1435C109.673 62.5819 109.636 62.0329 109.599 61.4713C109.537 60.5229 109.463 59.5745 109.401 58.6386C109.326 57.6652 109.24 56.6919 109.19 55.7185C109.153 55.0197 109.054 54.3708 108.744 53.7219C108.335 52.8733 108 51.9873 107.641 51.1138C107.468 50.6895 107.579 50.3027 107.938 50.0656C108.285 49.8285 108.682 49.8784 109.016 50.2153C109.165 50.365 109.301 50.5148 109.45 50.6645C110.293 51.5505 111.123 52.449 111.966 53.335C112.288 53.672 112.759 53.6969 113.106 53.385C113.267 53.2352 113.428 53.0855 113.589 52.9482C113.799 52.7485 113.874 52.499 113.837 52.2119C113.812 51.9748 113.676 51.8126 113.502 51.6629C112.882 51.1263 112.251 50.5897 111.631 50.0406C111.21 49.6662 111.185 49.192 111.557 48.7802C111.99 48.2935 111.941 47.8069 111.42 47.4325C109.438 46.0224 107.455 44.6123 105.473 43.1897V43.1897C105.385 43.1236 105.262 43.1884 105.241 43.296C105.24 43.3023 105.238 43.3084 105.237 43.3144C105.175 43.6639 105.138 44.0008 105.051 44.3502C104.977 44.6996 104.742 44.9242 104.382 44.9741C104.258 44.9991 104.122 45.0116 103.998 45.0116C103.552 45.0116 103.106 45.0116 102.66 45.0116C101.904 45.0116 101.706 45.2112 101.656 45.9725C101.631 46.4342 101.297 46.7711 100.826 46.7711C100.306 46.7711 99.7728 46.7711 99.2523 46.7711C98.893 46.7711 98.5956 46.5465 98.4965 46.2096C98.4593 46.1097 98.4593 45.9974 98.4469 45.8851C98.4345 45.5482 98.4345 45.2112 98.4221 44.8618C98.4097 43.9883 98.3974 43.1273 98.385 42.2537C98.3602 40.5816 98.3354 38.9218 98.2982 37.2497C98.2858 36.8379 98.4345 36.5259 98.7691 36.2763C100.268 35.1532 101.743 34.0176 103.23 32.8945C103.379 32.7822 103.515 32.6449 103.626 32.4952C104.234 31.6841 104.841 30.8604 105.448 30.0493V30.0493C105.674 29.7391 105.596 29.2926 105.269 29.0915C105.205 29.0517 105.141 29.0132 105.076 28.9761C104.729 28.7765 104.58 28.4894 104.593 28.0901C104.605 27.4662 104.593 26.8297 104.593 26.2058C104.593 25.4321 104.593 24.6709 104.593 23.8972C104.593 23.6351 104.655 23.398 104.853 23.2233C105.237 22.8739 105.634 22.5245 106.043 22.1876C106.328 21.9505 106.637 21.938 106.96 22.1252C107.195 22.2624 107.307 22.4871 107.368 22.7491C107.976 25.507 108.595 28.2523 109.202 31.0102C109.264 31.2847 109.388 31.4969 109.624 31.6591C111.569 33.0318 113.502 34.4045 115.435 35.7772C115.609 35.9019 115.794 35.9768 116.017 35.9519C116.439 35.9269 116.848 35.9144 117.269 35.877C117.566 35.852 117.814 35.7023 117.926 35.3903V35.3903C117.949 35.3198 118 35.2612 118 35.1869C118 35.1158 118 35.0453 118 34.9764C118 34.8788 117.981 34.7825 117.951 34.6894C117.898 34.5197 117.868 34.3623 117.839 34.2048Z" fill="#162842"/>
</svg>
