<svg width="118" height="71" viewBox="0 0 118 71" fill="none" xmlns="http://www.w3.org/2000/svg">
<rect x="25" y="19" width="69" height="45" rx="7" fill="#162842"/>
<rect x="41" y="11" width="38" height="17" rx="8.5" fill="#E8F2FF" stroke="#162842" stroke-width="2"/>
<path d="M46.646 50V38.48L47.906 39.74H44.126V37.4H49.562V50H46.646ZM57.1508 50.216C56.1188 50.216 55.1948 49.964 54.3788 49.46C53.5628 48.944 52.9208 48.2 52.4528 47.228C51.9848 46.256 51.7508 45.08 51.7508 43.7C51.7508 42.32 51.9848 41.144 52.4528 40.172C52.9208 39.2 53.5628 38.462 54.3788 37.958C55.1948 37.442 56.1188 37.184 57.1508 37.184C58.1948 37.184 59.1188 37.442 59.9228 37.958C60.7388 38.462 61.3808 39.2 61.8488 40.172C62.3168 41.144 62.5508 42.32 62.5508 43.7C62.5508 45.08 62.3168 46.256 61.8488 47.228C61.3808 48.2 60.7388 48.944 59.9228 49.46C59.1188 49.964 58.1948 50.216 57.1508 50.216ZM57.1508 47.75C57.6428 47.75 58.0688 47.612 58.4288 47.336C58.8008 47.06 59.0888 46.622 59.2928 46.022C59.5088 45.422 59.6168 44.648 59.6168 43.7C59.6168 42.752 59.5088 41.978 59.2928 41.378C59.0888 40.778 58.8008 40.34 58.4288 40.064C58.0688 39.788 57.6428 39.65 57.1508 39.65C56.6708 39.65 56.2448 39.788 55.8728 40.064C55.5128 40.34 55.2248 40.778 55.0088 41.378C54.8048 41.978 54.7028 42.752 54.7028 43.7C54.7028 44.648 54.8048 45.422 55.0088 46.022C55.2248 46.622 55.5128 47.06 55.8728 47.336C56.2448 47.612 56.6708 47.75 57.1508 47.75ZM69.3676 50.216C68.3356 50.216 67.4116 49.964 66.5956 49.46C65.7796 48.944 65.1376 48.2 64.6696 47.228C64.2016 46.256 63.9676 45.08 63.9676 43.7C63.9676 42.32 64.2016 41.144 64.6696 40.172C65.1376 39.2 65.7796 38.462 66.5956 37.958C67.4116 37.442 68.3356 37.184 69.3676 37.184C70.4116 37.184 71.3356 37.442 72.1396 37.958C72.9556 38.462 73.5976 39.2 74.0656 40.172C74.5336 41.144 74.7676 42.32 74.7676 43.7C74.7676 45.08 74.5336 46.256 74.0656 47.228C73.5976 48.2 72.9556 48.944 72.1396 49.46C71.3356 49.964 70.4116 50.216 69.3676 50.216ZM69.3676 47.75C69.8596 47.75 70.2856 47.612 70.6456 47.336C71.0176 47.06 71.3056 46.622 71.5096 46.022C71.7256 45.422 71.8336 44.648 71.8336 43.7C71.8336 42.752 71.7256 41.978 71.5096 41.378C71.3056 40.778 71.0176 40.34 70.6456 40.064C70.2856 39.788 69.8596 39.65 69.3676 39.65C68.8876 39.65 68.4616 39.788 68.0896 40.064C67.7296 40.34 67.4416 40.778 67.2256 41.378C67.0216 41.978 66.9196 42.752 66.9196 43.7C66.9196 44.648 67.0216 45.422 67.2256 46.022C67.4416 46.622 67.7296 47.06 68.0896 47.336C68.4616 47.612 68.8876 47.75 69.3676 47.75Z" fill="#E8F2FF"/>
<path d="M51.28 23V17.648L51.7 18.08H49.096V16.544H55.324V18.08H52.72L53.14 17.648V23H51.28ZM59.0763 23.096C58.3883 23.096 57.7763 22.952 57.2403 22.664C56.7123 22.376 56.2923 21.984 55.9803 21.488C55.6763 20.984 55.5243 20.412 55.5243 19.772C55.5243 19.124 55.6763 18.552 55.9803 18.056C56.2923 17.552 56.7123 17.16 57.2403 16.88C57.7763 16.592 58.3883 16.448 59.0763 16.448C59.7563 16.448 60.3643 16.592 60.9003 16.88C61.4363 17.16 61.8563 17.548 62.1603 18.044C62.4643 18.54 62.6163 19.116 62.6163 19.772C62.6163 20.412 62.4643 20.984 62.1603 21.488C61.8563 21.984 61.4363 22.376 60.9003 22.664C60.3643 22.952 59.7563 23.096 59.0763 23.096ZM59.0763 21.56C59.3883 21.56 59.6683 21.488 59.9163 21.344C60.1643 21.2 60.3603 20.996 60.5043 20.732C60.6483 20.46 60.7203 20.14 60.7203 19.772C60.7203 19.396 60.6483 19.076 60.5043 18.812C60.3603 18.548 60.1643 18.344 59.9163 18.2C59.6683 18.056 59.3883 17.984 59.0763 17.984C58.7643 17.984 58.4843 18.056 58.2363 18.2C57.9883 18.344 57.7883 18.548 57.6363 18.812C57.4923 19.076 57.4203 19.396 57.4203 19.772C57.4203 20.14 57.4923 20.46 57.6363 20.732C57.7883 20.996 57.9883 21.2 58.2363 21.344C58.4843 21.488 58.7643 21.56 59.0763 21.56ZM63.9039 23V16.544H70.3239V23H68.4519V17.66L68.8719 18.08H65.3439L65.7639 17.66V23H63.9039Z" fill="#162842"/>
</svg>
