<svg width="22" height="23" viewBox="0 0 22 23" fill="none" xmlns="http://www.w3.org/2000/svg">
<path fill-rule="evenodd" clip-rule="evenodd" d="M15.3577 11.2221H1.57992C1.14364 11.2221 0.789959 11.5758 0.789959 12.012V17.321C0.789959 17.7573 1.14364 18.111 1.57992 18.111H15.3577C15.794 18.111 16.1477 17.7573 16.1477 17.321V12.012C16.1477 11.5758 15.794 11.2221 15.3577 11.2221ZM1.57992 10.4321C0.707353 10.4321 0 11.1395 0 12.012V17.321C0 18.1936 0.707354 18.9009 1.57992 18.9009H15.3577C16.2303 18.9009 16.9376 18.1936 16.9376 17.321V12.012C16.9376 11.1395 16.2303 10.4321 15.3577 10.4321H1.57992Z" fill="white"/>
<path d="M11.6265 14.7974H13.2807V15.3188H11.6265V14.7974ZM11.6787 16.5891H11.0625V13.2712H13.4845V13.7879H11.6787V16.5891Z" fill="white"/>
<path d="M7.14551 16.5891V13.2712H8.59587C8.95609 13.2712 9.27208 13.3408 9.54382 13.4798C9.81557 13.6188 10.0273 13.8116 10.1789 14.058C10.3306 14.3045 10.4065 14.5952 10.4065 14.9302C10.4065 15.2619 10.3306 15.5526 10.1789 15.8023C10.0273 16.0487 9.81557 16.2415 9.54382 16.3805C9.27208 16.5196 8.95609 16.5891 8.59587 16.5891H7.14551ZM7.76168 16.0677H8.56743C8.81706 16.0677 9.03193 16.0203 9.21204 15.9255C9.39531 15.8307 9.53592 15.698 9.63388 15.5274C9.73499 15.3567 9.78555 15.1577 9.78555 14.9302C9.78555 14.6995 9.73499 14.5004 9.63388 14.3329C9.53592 14.1623 9.39531 14.0296 9.21204 13.9348C9.03193 13.84 8.81706 13.7926 8.56743 13.7926H7.76168V16.0677Z" fill="white"/>
<path d="M3.75293 16.5891V13.2712H5.11798C5.41184 13.2712 5.66305 13.3186 5.8716 13.4134C6.08331 13.5082 6.24604 13.6441 6.35979 13.8211C6.47355 13.998 6.53042 14.2081 6.53042 14.4514C6.53042 14.6947 6.47355 14.9049 6.35979 15.0818C6.24604 15.2588 6.08331 15.3946 5.8716 15.4894C5.66305 15.5842 5.41184 15.6316 5.11798 15.6316H4.09419L4.3691 15.3425V16.5891H3.75293ZM4.3691 15.4089L4.09419 15.1103H5.08954C5.36129 15.1103 5.56509 15.0534 5.70097 14.9396C5.84 14.8227 5.90952 14.66 5.90952 14.4514C5.90952 14.2397 5.84 14.077 5.70097 13.9632C5.56509 13.8495 5.36129 13.7926 5.08954 13.7926H4.09419L4.3691 13.4893V15.4089Z" fill="white"/>
<path fill-rule="evenodd" clip-rule="evenodd" d="M16.2285 1.08012C16.2285 0.363999 17.105 0.017395 17.5948 0.539838L20.993 4.1646C21.466 4.66912 21.1083 5.49485 20.4167 5.49485H17.0185C16.5822 5.49485 16.2285 5.14117 16.2285 4.70489V1.08012ZM20.4167 4.70489L17.0185 1.08012V4.70489H20.4167Z" fill="white"/>
<path fill-rule="evenodd" clip-rule="evenodd" d="M4.15812 1.9749C4.15812 1.32047 4.68864 0.789959 5.34306 0.789959H16.78C16.9982 0.789959 17.175 0.61312 17.175 0.394979C17.175 0.176838 16.9982 0 16.78 0H5.34306C4.25235 0 3.36816 0.884193 3.36816 1.9749V11.2249C3.5404 11.0843 3.76035 11 4 11C4.05381 11 4.10662 11.0042 4.15812 11.0124V1.9749ZM4.15812 18.9876C4.10662 18.9958 4.05381 19 4 19C3.76035 19 3.5404 18.9157 3.36816 18.7751V20.4576C3.36816 21.5483 4.25235 22.4325 5.34306 22.4325H19.4345C20.5252 22.4325 21.4094 21.5483 21.4094 20.4576V4.78622C21.4094 4.56808 21.2326 4.39124 21.0144 4.39124C20.7963 4.39124 20.6195 4.56808 20.6195 4.78622V20.4576C20.6195 21.112 20.0889 21.6425 19.4345 21.6425H5.34306C4.68864 21.6425 4.15812 21.112 4.15812 20.4576V18.9876Z" fill="white"/>
</svg>
