<svg width="348" height="310" viewBox="0 0 348 310" fill="none" xmlns="http://www.w3.org/2000/svg">
<path d="M129.825 44.6272C144.322 19.5214 151.57 6.96859 161.033 2.75588C169.287 -0.918626 178.713 -0.918625 186.967 2.75588C196.43 6.96858 203.678 19.5215 218.175 44.6272L327.232 233.496C341.729 258.602 348.977 271.155 347.894 281.455C346.95 290.44 342.237 298.602 334.927 303.912C326.547 310 312.05 310 283.057 310H64.9429C35.9497 310 21.4531 310 13.0728 303.912C5.76318 298.602 1.05028 290.44 0.105843 281.455C-0.976928 271.155 6.27138 258.602 20.768 233.496L129.825 44.6272Z" fill="url(#paint0_linear_280_95)"/>
<path d="M146.954 98.6401C155.994 83.0907 160.513 75.316 166.414 72.7069C171.561 70.431 177.439 70.431 182.586 72.7069C188.487 75.316 193.006 83.0907 202.046 98.6401L270.05 215.617C279.089 231.166 283.609 238.941 282.934 245.321C282.345 250.885 279.406 255.941 274.848 259.229C269.623 263 260.583 263 242.504 263H106.496C88.4169 263 79.3774 263 74.1517 259.229C69.5937 255.941 66.6549 250.885 66.066 245.321C65.3908 238.941 69.9106 231.166 78.9502 215.617L146.954 98.6401Z" fill="url(#paint1_linear_280_95)"/>
<defs>
<linearGradient id="paint0_linear_280_95" x1="274.495" y1="83.6918" x2="45.9636" y2="342.076" gradientUnits="userSpaceOnUse">
<stop stop-color="#1B355A"/>
<stop offset="1" stop-color="#162842"/>
</linearGradient>
<linearGradient id="paint1_linear_280_95" x1="237.165" y1="122.835" x2="95.7432" y2="283.817" gradientUnits="userSpaceOnUse">
<stop stop-color="#162842"/>
<stop offset="1" stop-color="#1B355A"/>
</linearGradient>
</defs>
</svg>
