<svg width="19" height="17" viewBox="0 0 19 17" fill="none" xmlns="http://www.w3.org/2000/svg">
<path d="M15.452 11.1613H6.12199C5.7815 11.1613 5.48835 10.921 5.42157 10.5871L4.10005 3.97949C4.01165 3.5375 4.34972 3.12512 4.80047 3.12512H17.4343C17.9127 3.12512 18.2559 3.58636 18.1184 4.04466L16.1362 10.6523C16.0455 10.9544 15.7674 11.1613 15.452 11.1613Z" fill="white"/>
<path d="M9.55324 14.7777C9.55324 15.8873 8.65376 16.7868 7.5442 16.7868C6.43464 16.7868 5.53516 15.8873 5.53516 14.7777C5.53516 13.6682 6.43464 12.7687 7.5442 12.7687C8.65376 12.7687 9.55324 13.6682 9.55324 14.7777Z" fill="white"/>
<path d="M15.9829 14.7777C15.9829 15.8873 15.0835 16.7868 13.9739 16.7868C12.8643 16.7868 11.9648 15.8873 11.9648 14.7777C11.9648 13.6682 12.8643 12.7687 13.9739 12.7687C15.0835 12.7687 15.9829 13.6682 15.9829 14.7777Z" fill="white"/>
<path fill-rule="evenodd" clip-rule="evenodd" d="M0 0.714286C0 0.319797 0.319797 0 0.714286 0H4.91357L6.95382 9.97713C7.03285 10.3636 6.78361 10.741 6.39712 10.82C6.01063 10.8991 5.63325 10.6498 5.55421 10.2633L3.74756 1.42857H0.714286C0.319797 1.42857 0 1.10877 0 0.714286Z" fill="white"/>
</svg>
