<svg width="33" height="33" viewBox="0 0 33 33" fill="none" xmlns="http://www.w3.org/2000/svg">
<rect width="32.2666" height="32.2666" rx="8" fill="#4094F7"/>
<path d="M7.69882 15.2563L18.3788 10.856C19.433 10.3976 23.0083 8.93081 23.0083 8.93081C23.0083 8.93081 24.6584 8.28909 24.5209 9.84754C24.4751 10.4893 24.1084 12.7353 23.7417 15.1646L22.5958 22.361C22.5958 22.361 22.5041 23.4152 21.7249 23.5986C20.9457 23.7819 19.6622 22.9569 19.433 22.7735C19.2497 22.636 15.9953 20.5734 14.8035 19.5649C14.4827 19.2899 14.116 18.7399 14.8494 18.0982C16.4995 16.5856 18.4705 14.7062 19.6622 13.5145C20.2123 12.9644 20.7623 11.681 18.4705 13.2395L12.0075 17.594C12.0075 17.594 11.2741 18.0523 9.89899 17.6398C8.52388 17.2273 6.91959 16.6772 6.91959 16.6772C6.91959 16.6772 5.81951 15.9897 7.69882 15.2563Z" fill="white"/>
</svg>
