<svg width="14" height="14" viewBox="0 0 14 14" fill="none" xmlns="http://www.w3.org/2000/svg">
<g clip-path="url(#clip0_160_584)">
<path d="M14 7C14 3.13401 10.866 0 7 0C3.13401 0 0 3.13401 0 7C0 10.866 3.13401 14 7 14C10.866 14 14 10.866 14 7Z" fill="#5392C0"/>
<path d="M6.57478 10.0589H7.13105C7.13105 10.0589 7.29895 10.0406 7.38544 9.94813C7.4643 9.86333 7.46176 9.70391 7.46176 9.70391C7.46176 9.70391 7.45102 8.9577 7.79727 8.84775C8.13872 8.73949 8.57712 9.56909 9.04096 9.88792C9.39231 10.1293 9.65942 10.0765 9.65942 10.0765L10.9031 10.0592C10.9031 10.0592 11.5532 10.0191 11.2448 9.50803C11.2197 9.4662 11.0654 9.13012 10.3208 8.43902C9.54155 7.71599 9.64613 7.83273 10.5846 6.58197C11.1561 5.81879 11.3845 5.35524 11.3132 5.15596C11.2451 4.9663 10.8248 5.01633 10.8248 5.01633L9.42566 5.02509C9.36362 5.01775 9.3008 5.02886 9.24504 5.05703C9.16986 5.10198 9.12152 5.20712 9.12152 5.20712C9.12152 5.20712 8.89992 5.79646 8.60482 6.2979C7.98298 7.3556 7.73283 7.41185 7.63079 7.34599C7.39392 7.19279 7.453 6.73093 7.453 6.40276C7.453 5.37757 7.60846 4.95019 7.15027 4.83939C6.9982 4.80264 6.88627 4.77833 6.49733 4.77438C5.99816 4.76929 5.57559 4.77579 5.33646 4.89309C5.17733 4.97111 5.0538 5.14466 5.12927 5.15455C5.2217 5.16699 5.43115 5.21108 5.54224 5.36202C5.68554 5.55705 5.68074 5.99517 5.68074 5.99517C5.68074 5.99517 5.76327 7.20184 5.48825 7.35193C5.29972 7.45481 5.04109 7.2448 4.48566 6.28518C4.29712 5.95123 4.13029 5.60549 3.98621 5.25009C3.96062 5.18971 3.9211 5.13624 3.87089 5.09406C3.80587 5.05093 3.7328 5.02141 3.65607 5.00729L2.32758 5.01605C2.32758 5.01605 2.12802 5.0217 2.05481 5.10848C1.98952 5.18564 2.04973 5.34534 2.04973 5.34534C2.04973 5.34534 3.09047 7.78043 4.26915 9.00773C5.35003 10.133 6.57704 10.0592 6.57704 10.0592" fill="white"/>
</g>
<defs>
<clipPath id="clip0_160_584">
<rect width="14" height="14" fill="white"/>
</clipPath>
</defs>
</svg>
