<svg width="20" height="19" viewBox="0 0 20 19" fill="none" xmlns="http://www.w3.org/2000/svg">
<path d="M1 5.5651C1 5.19988 1.35589 4.9339 1.71866 5.02801L9.14724 8.05177C9.39738 8.11666 9.57143 8.33704 9.57143 8.58887V17.4438C9.57143 17.8091 9.21553 18.075 8.85276 17.9809L1.42419 14.9572C1.17405 14.8923 1 14.6719 1 14.4201V5.5651Z" fill="white"/>
<path d="M19 5.5651C19 5.19988 18.6441 4.9339 18.2813 5.02801L10.8528 8.05177C10.6026 8.11666 10.4286 8.33704 10.4286 8.58887V17.4438C10.4286 17.8091 10.7845 18.075 11.1472 17.9809L18.5758 14.9572C18.826 14.8923 19 14.6719 19 14.4201V5.5651Z" fill="white"/>
<path d="M9.91022 1.00807C9.96562 0.99731 10.0227 0.99731 10.0781 1.00807L17.3097 3.50945C17.7555 3.59603 17.7742 4.20938 17.3345 4.32154L10.1028 7.26286C10.0316 7.28103 9.9567 7.28104 9.88544 7.26286L2.65378 4.32154C2.21405 4.20938 2.23277 3.59603 2.67857 3.50945L9.91022 1.00807Z" fill="white"/>
<path d="M1 5.5651C1 5.19988 1.35589 4.9339 1.71866 5.02801L9.14724 8.05177C9.39738 8.11666 9.57143 8.33704 9.57143 8.58887V17.4438C9.57143 17.8091 9.21553 18.075 8.85276 17.9809L1.42419 14.9572C1.17405 14.8923 1 14.6719 1 14.4201V5.5651Z" stroke="#162842" stroke-width="0.5"/>
<path d="M19 5.5651C19 5.19988 18.6441 4.9339 18.2813 5.02801L10.8528 8.05177C10.6026 8.11666 10.4286 8.33704 10.4286 8.58887V17.4438C10.4286 17.8091 10.7845 18.075 11.1472 17.9809L18.5758 14.9572C18.826 14.8923 19 14.6719 19 14.4201V5.5651Z" stroke="#162842" stroke-width="0.5"/>
<path d="M9.91022 1.00807C9.96562 0.99731 10.0227 0.99731 10.0781 1.00807L17.3097 3.50945C17.7555 3.59603 17.7742 4.20938 17.3345 4.32154L10.1028 7.26286C10.0316 7.28103 9.9567 7.28104 9.88544 7.26286L2.65378 4.32154C2.21405 4.20938 2.23277 3.59603 2.67857 3.50945L9.91022 1.00807Z" stroke="#162842" stroke-width="0.5"/>
</svg>
