<svg width="25" height="24" viewBox="0 0 25 24" fill="none" xmlns="http://www.w3.org/2000/svg">
<path d="M0 6.44485C0 5.92925 0.494299 5.55375 0.998145 5.6866L11.3156 9.95545C11.663 10.0471 11.9048 10.3582 11.9048 10.7137V23.2148C11.9048 23.7304 11.4105 24.1059 10.9066 23.9731L0.589156 19.7042C0.241733 19.6126 0 19.3015 0 18.946V6.44485Z" fill="#162842"/>
<path d="M25 6.44485C25 5.92925 24.5057 5.55375 24.0019 5.6866L13.6844 9.95545C13.337 10.0471 13.0952 10.3582 13.0952 10.7137V23.2148C13.0952 23.7304 13.5895 24.1059 14.0934 23.9731L24.4108 19.7042C24.7583 19.6126 25 19.3015 25 18.946V6.44485Z" fill="#162842"/>
<path d="M12.3753 0.011393C12.4523 -0.00379728 12.5315 -0.00379784 12.6084 0.0113924L22.6524 3.54275C23.2715 3.66499 23.2975 4.53089 22.6868 4.68923L12.6428 8.84168C12.5439 8.86734 12.4399 8.86735 12.3409 8.84168L2.29692 4.68923C1.68618 4.53089 1.71218 3.66499 2.33134 3.54275L12.3753 0.011393Z" fill="#162842"/>
</svg>
