<svg width="33" height="33" viewBox="0 0 33 33" fill="none" xmlns="http://www.w3.org/2000/svg">
<rect x="0.734375" width="32.2666" height="32.2666" rx="8" fill="#4CCA5B"/>
<path d="M25.4859 8.35735C23.4078 6.2795 20.6445 5.13457 17.7004 5.1333C11.6336 5.1333 6.6964 10.0648 6.69397 16.1263C6.69326 18.0638 7.19994 19.9552 8.16302 21.6224L6.60156 27.3191L12.4362 25.7904C14.0437 26.6664 15.8537 27.128 17.6956 27.1287H17.7003H17.7004C23.7662 27.1287 28.7041 22.1964 28.7067 16.1352C28.7077 13.1975 27.5638 10.4353 25.4859 8.35735ZM17.7004 25.272H17.6968C16.055 25.2711 14.445 24.8307 13.0407 23.9981L12.7065 23.8001L9.24412 24.7072L10.1685 21.3354L9.95078 20.9897C9.03499 19.5348 8.55152 17.8534 8.55221 16.127C8.55422 11.0889 12.6578 6.99012 17.7038 6.99012C20.1474 6.99114 22.444 7.94281 24.1713 9.66986C25.8985 11.3969 26.849 13.6927 26.8482 16.1344C26.8461 21.1727 22.7424 25.272 17.7004 25.272Z" fill="#E0E0E0"/>
<path d="M7.10547 26.6871L8.5956 21.2507C7.67628 19.6596 7.19283 17.8545 7.19341 16.0058C7.19583 10.2213 11.9075 5.51526 17.6967 5.51526C20.5064 5.51653 23.1436 6.6091 25.1263 8.59208C27.1095 10.575 28.201 13.2108 28.1999 16.014C28.1975 21.7986 23.4855 26.5051 17.6971 26.5051C17.6967 26.5051 17.6974 26.5051 17.6971 26.5051H17.6924C15.9346 26.5046 14.2075 26.0637 12.6735 25.2283L7.10547 26.6871Z" fill="url(#paint0_linear_320_436)"/>
<path fill-rule="evenodd" clip-rule="evenodd" d="M14.9811 11.4592C14.7774 11.0069 14.563 10.9978 14.3693 10.9899C14.2109 10.9831 14.0295 10.9835 13.8484 10.9835C13.6671 10.9835 13.3726 11.0516 13.1235 11.3234C12.8742 11.5952 12.1719 12.2523 12.1719 13.5886C12.1719 14.9251 13.1461 16.2165 13.2819 16.3979C13.4179 16.579 15.1626 19.4091 17.9258 20.4978C20.2222 21.4026 20.6895 21.2227 21.188 21.1774C21.6864 21.1321 22.7963 20.5204 23.0229 19.8861C23.2495 19.252 23.2495 18.7084 23.1815 18.5948C23.1135 18.4816 22.9323 18.4137 22.6604 18.2778C22.3885 18.142 21.052 17.4848 20.8028 17.3942C20.5536 17.3037 20.3723 17.2584 20.1911 17.5304C20.0098 17.802 19.4891 18.4137 19.3305 18.5948C19.1719 18.7763 19.0133 18.7989 18.7414 18.6631C18.4695 18.5269 17.594 18.2403 16.5553 17.315C15.7472 16.5951 15.2015 15.706 15.0429 15.434C14.8843 15.1624 15.0259 15.0152 15.1623 14.8798C15.2844 14.7581 15.4342 14.5627 15.5701 14.4041C15.7058 14.2455 15.7511 14.1323 15.8417 13.9512C15.9324 13.7698 15.8871 13.6112 15.8191 13.4754C15.7511 13.3396 15.2228 11.9963 14.9811 11.4592Z" fill="white"/>
<path d="M25.3961 8.3223C23.3418 6.26831 20.6102 5.13654 17.6999 5.13525C11.7027 5.13525 6.82226 10.0101 6.81985 16.002C6.81914 17.9174 7.32001 19.787 8.27202 21.4351L6.72852 27.0663L12.4962 25.5552C14.0853 26.4211 15.8745 26.8774 17.6952 26.8781H17.6999H17.6999C23.6961 26.8781 28.5773 22.0024 28.5798 16.0108C28.5808 13.1069 27.4501 10.3764 25.3961 8.3223ZM17.6999 25.0427H17.6964C16.0734 25.0419 14.4819 24.6065 13.0937 23.7835L12.7634 23.5878L9.34073 24.4844L10.2545 21.1514L10.0393 20.8097C9.13399 19.3715 8.65607 17.7094 8.65678 16.0027C8.65875 11.0225 12.7152 6.9708 17.7033 6.9708C20.1189 6.97179 22.3891 7.91255 24.0966 9.61976C25.8039 11.327 26.7435 13.5964 26.7428 16.0101C26.7407 20.9905 22.684 25.0427 17.6999 25.0427Z" fill="white"/>
<defs>
<linearGradient id="paint0_linear_320_436" x1="17.6527" y1="26.6871" x2="17.6527" y2="5.51529" gradientUnits="userSpaceOnUse">
<stop stop-color="#20B038"/>
<stop offset="1" stop-color="#60D66A"/>
</linearGradient>
</defs>
</svg>
