<svg width="149" height="31" viewBox="0 0 149 31" fill="none" xmlns="http://www.w3.org/2000/svg">
<path d="M54.3326 25.0744C61.6211 25.0744 66.0919 22.3351 65.9511 16.0479C65.8002 9.30992 61.6613 7.04864 54.3326 7.04864H45.0302C44.6442 7.04864 44.4512 7.18418 44.4512 7.45525V24.6679C44.4512 24.939 44.6442 25.0745 45.0302 25.0745H54.3326V25.0744ZM145.501 7.09115C145.129 7.09115 144.942 7.22496 144.942 7.49258V18.5004L131.739 7.46576C131.522 7.28379 131.441 7.09115 131.069 7.09115H128.693C128.321 7.09115 128.134 7.22496 128.134 7.49258V24.4836C128.134 24.7512 128.32 24.885 128.693 24.885H131.708C132.081 24.885 132.267 24.7512 132.267 24.4836V13.3609L145.597 24.6709C145.813 24.8545 146.044 24.885 146.416 24.885H148.441C148.814 24.885 149 24.7512 149 24.4836V7.49258C149 7.22496 148.814 7.09115 148.441 7.09115H145.501ZM89.9744 10.6684H97.1162V24.4199C97.1162 24.6861 97.2745 24.8193 97.591 24.8193H101.143C101.46 24.8193 101.618 24.6861 101.618 24.4199V10.6684H108.43V24.4756C108.43 24.7428 108.633 24.8763 109.039 24.8763H126.245C126.651 24.8763 126.854 24.7428 126.854 24.4756V21.5381C126.854 21.2709 126.651 21.1374 126.245 21.1374H113.057V17.3347H120.402C120.808 17.3347 121.011 17.2012 121.011 16.9341V14.2579C121.011 13.9908 120.808 13.8573 120.402 13.8573H113.035V10.515H126.002C126.407 10.515 126.61 10.3813 126.61 10.1143V7.5136C126.61 7.24645 126.493 7.11296 126.087 7.11296C115.126 7.11296 104.08 7.115 93.1184 7.115C93.069 7.08817 92.9857 7.07484 92.8687 7.07484H88.585C88.2605 7.07484 88.0605 7.04425 87.8709 7.25555L82.9227 12.7738L77.8275 7.38466C77.6325 7.17837 77.3731 7.07484 77.0486 7.07484H72.051C71.8944 7.07484 71.8124 7.1299 71.7919 7.20959C71.7121 7.1026 71.5775 7.04911 71.3883 7.04911H67.7898C67.4627 7.04911 67.2991 7.2088 67.2991 7.52803V27.8052C67.2991 28.1246 67.4626 28.2841 67.7898 28.2841H71.3883C71.7154 28.2841 71.879 28.1244 71.879 27.8052V24.821C71.9266 24.8325 71.9889 24.8383 72.0657 24.8383H76.5687C76.8933 24.8383 77.0956 24.8711 77.2828 24.6576L82.7922 18.3712L88.7151 24.5473C88.9116 24.752 89.1694 24.8596 89.494 24.8571L94.5702 24.8181C94.8948 24.8155 94.9006 24.5798 94.6999 24.3791L85.6181 15.2992L89.9738 10.6687L89.9744 10.6684ZM71.8768 7.46293C71.8903 7.47988 71.9053 7.49666 71.9216 7.51313L80.0014 15.7488L71.8793 24.5192V7.52741C71.8793 7.50497 71.8786 7.48348 71.8768 7.46278V7.46293ZM71.3888 5.7907C71.7159 5.7907 71.8795 5.63101 71.8795 5.31178V2.08748C71.8775 1.76056 71.7141 1.6084 71.3888 1.6084H67.7901C67.4663 1.6084 67.3028 1.7648 67.2996 2.0776V5.31162C67.2996 5.63101 67.4632 5.79055 67.7903 5.79055H71.3889L71.3888 5.7907ZM49.0432 21.1398L49.0583 10.6875L53.2518 10.6624C59.5103 10.625 61.4228 11.9547 61.4228 16.0479C61.4228 20.0597 58.3082 21.1504 53.4061 21.145L49.0431 21.1399L49.0432 21.1398Z" fill="white"/>
<path fill-rule="evenodd" clip-rule="evenodd" d="M16.1958 0.275588C15.2441 0.696859 14.5151 1.95214 13.0571 4.46272L12.2397 5.87021C15.806 4.87163 20.7761 6.23716 24.7099 9.22737L21.9429 4.46272C20.4849 1.95215 19.7559 0.696858 18.8042 0.275588C17.974 -0.0918626 17.026 -0.0918625 16.1958 0.275588ZM32.3693 22.4164C33.2453 26.7723 32.3011 29.824 30.2463 30.9928C32.0175 30.9683 33.0346 30.8611 33.6852 30.3912C34.4204 29.8602 34.8944 29.044 34.9894 28.1455C35.0983 27.1155 34.3693 25.8602 32.9113 23.3496L32.3693 22.4164ZM24.5855 31C23.5452 30.4592 22.6332 29.667 21.9463 28.7769C21.6202 28.3542 21.33 27.9768 21.0694 27.6379L21.0694 27.6379L21.0693 27.6378C19.8955 26.1109 19.323 25.3662 18.772 24.7923C17.9386 23.9244 16.5917 23.4216 16.0786 23.2941C16.7627 23.0179 18.6758 22.8287 20.4714 23.8998C21.2882 24.3871 21.9947 25.2881 22.7159 26.208C23.9764 27.8157 25.2819 29.4809 27.301 29.0957C30.4753 28.49 30.6356 21.8916 26.4994 15.2612C23.0214 9.68616 15.441 6.55892 11.5576 9.87409C8.60777 12.3923 10.5743 16.5788 11.5576 18.4489C10.2157 17.6717 8.32737 15.9685 7.71939 13.654L2.08874 23.3496C0.630742 25.8602 -0.0982542 27.1155 0.0106451 28.1455C0.105632 29.044 0.57963 29.8602 1.3148 30.3912C1.969 30.8637 2.99382 30.9695 4.78337 30.9932C2.33324 29.9179 0.442676 27.56 1.84235 24.6647C3.43271 21.3751 8.01997 21.679 10.1148 22.2421C10.1098 22.2415 10.1031 22.2405 10.0947 22.2392C9.96119 22.219 9.39652 22.1334 8.12685 22.4971C8.12685 22.4971 4.69712 23.5172 4.56774 26.4498C4.27917 30.0519 8.38333 29.8925 8.38333 29.8925C12.0887 29.9413 12.3761 25.0052 12.5944 21.2568C12.6613 20.1073 12.7218 19.0695 12.8723 18.3214C13.1894 16.745 13.6587 15.3043 14.8281 14.3687C17.2295 12.4475 21.1523 12.2453 22.7479 14.4962C25.2988 18.0945 22.1708 20.8502 20.5034 21.4771C20.571 21.2438 20.6578 20.9911 20.7497 20.7232L20.7498 20.7232C21.2108 19.3807 21.8024 17.6578 20.7599 16.0899C19.9177 14.8232 17.1688 14.6555 15.9504 16.6956C15.189 17.9705 15.1162 20.1292 15.0436 22.285C15 23.5789 14.9564 24.8718 14.764 25.9718C14.2537 28.8888 13.0224 30.3077 11.2887 31H24.5855Z" fill="white"/>
</svg>
