<svg width="39" height="40" viewBox="0 0 39 40" fill="none" xmlns="http://www.w3.org/2000/svg">
<path d="M0.519164 10.8755C0.33744 9.56442 0.246577 8.90888 0.432324 8.37274C0.595711 7.90114 0.904204 7.49337 1.31359 7.20787C1.77899 6.88331 2.43454 6.79244 3.74564 6.61072L28.2385 3.21589C29.5496 3.03416 30.2051 2.9433 30.7413 3.12905C31.2129 3.29244 31.6206 3.60093 31.9061 4.01031C32.2307 4.47572 32.3216 5.13127 32.5033 6.44236L35.8981 30.9352C36.0798 32.2463 36.1707 32.9019 35.985 33.438C35.8216 33.9096 35.5131 34.3174 35.1037 34.6029C34.6383 34.9274 33.9827 35.0183 32.6717 35.2L8.1788 38.5948C6.8677 38.7766 6.21215 38.8674 5.67601 38.6817C5.20441 38.5183 4.79664 38.2098 4.51115 37.8004C4.18658 37.335 4.09572 36.6795 3.91399 35.3684L0.519164 10.8755Z" fill="#C5E6FF"/>
<path fill-rule="evenodd" clip-rule="evenodd" d="M7.21138 1.1727C7 1.58756 7 2.13064 7 3.2168V6.61119V7.7365V28.3643C7 29.6767 7 30.3329 7.25542 30.8342C7.48009 31.2752 7.83859 31.6337 8.27954 31.8583C8.78083 32.1138 9.43705 32.1138 10.7495 32.1138H35.2505C36.563 32.1138 37.2192 32.1138 37.7205 31.8583C38.1614 31.6337 38.5199 31.2752 38.7446 30.8342C39 30.3329 39 29.6767 39 28.3643V6.61119C39 5.29874 39 4.64252 38.7446 4.14123C38.5199 3.70028 38.1614 3.34178 37.7205 3.11711C37.2192 2.86169 36.563 2.86169 35.2505 2.86169H18.77L18.5846 2.27777L18.5846 2.27776C18.3378 1.5004 18.2144 1.11172 17.9786 0.823991C17.7705 0.569945 17.5012 0.372925 17.1961 0.251404C16.8505 0.11377 16.4427 0.11377 15.6271 0.11377H10.103C9.01687 0.11377 8.47379 0.11377 8.05893 0.325151C7.69401 0.511087 7.39732 0.807777 7.21138 1.1727Z" fill="#1C355A"/>
</svg>
