<svg width="65" height="54" viewBox="0 0 65 54" fill="none" xmlns="http://www.w3.org/2000/svg">
<path d="M10.2863 37.4735L3.4668 20.8838L10.6949 18.896L13.5506 36.5758L10.2863 37.4735Z" fill="#1C355A"/>
<path d="M10.5771 52.1838L10.1449 53.0856L10.5771 52.1838ZM26.7031 48.1574C27.0961 47.7694 27.1 47.1362 26.7119 46.7432C26.3239 46.3503 25.6907 46.3463 25.2978 46.7344L26.7031 48.1574ZM11.0698 36.6187C11.8503 40.466 10.2578 43.4273 8.94864 46.0116C8.62779 46.645 8.31445 47.2777 8.08204 47.8807C7.85058 48.4813 7.67235 49.1187 7.66711 49.7622C7.66165 50.4334 7.84521 51.0867 8.2912 51.6787C8.72179 52.2503 9.35223 52.7057 10.1449 53.0856L11.0093 51.282C10.3905 50.9855 10.0621 50.7056 9.88865 50.4753C9.73057 50.2655 9.66483 50.0503 9.66704 49.7785C9.66948 49.479 9.7559 49.099 9.94824 48.5999C10.1397 48.1033 10.4093 47.554 10.7328 46.9154C12.001 44.4118 13.9677 40.844 13.0299 36.2211L11.0698 36.6187ZM10.1449 53.0856C13.081 54.4927 16.5978 53.8517 19.5636 52.6603C22.5597 51.4567 25.2531 49.5894 26.7031 48.1574L25.2978 46.7344C24.0476 47.969 21.5822 49.694 18.8181 50.8045C16.0236 51.9271 13.1788 52.3218 11.0093 51.282L10.1449 53.0856Z" fill="#1C355A"/>
<rect x="27.0635" y="0.11377" width="37.9509" height="47.7901" rx="7" transform="rotate(1.56314 27.0635 0.11377)" fill="#C5E6FF"/>
<rect x="20.1523" y="5.33545" width="37.9509" height="47.7901" rx="7" transform="rotate(-4.45524 20.1523 5.33545)" fill="#1C355A"/>
<circle cx="5.63337" cy="16.0533" r="5.63337" fill="#1C355A"/>
</svg>
