<svg width="665" height="665" viewBox="0 0 665 665" fill="none" xmlns="http://www.w3.org/2000/svg">
<path d="M289.199 75.0001C308.444 41.6667 356.556 41.6667 375.801 75L577.152 423.75C596.397 457.083 572.341 498.75 533.851 498.75H131.149C92.6591 498.75 68.6028 457.083 87.8478 423.75L289.199 75.0001Z" fill="url(#paint0_linear_4056_271)"/>
<path d="M306.519 184C318.066 164 346.934 164 358.481 184L474.095 384.25C485.642 404.25 471.208 429.25 448.114 429.25H216.886C193.792 429.25 179.358 404.25 190.905 384.25L306.519 184Z" fill="url(#paint1_linear_4056_271)"/>
<path d="M235.022 331V299.5H259.547V304.315H240.782V312.055H250.097C253.877 312.055 256.742 312.85 258.692 314.44C260.672 316 261.662 318.28 261.662 321.28C261.662 324.37 260.567 326.77 258.377 328.48C256.217 330.16 253.157 331 249.197 331H235.022ZM240.782 326.5H248.882C251.132 326.5 252.842 326.065 254.012 325.195C255.182 324.325 255.767 323.065 255.767 321.415C255.767 318.175 253.472 316.555 248.882 316.555H240.782V326.5ZM280.758 331.315C278.808 331.315 277.023 330.865 275.403 329.965C273.813 329.065 272.538 327.715 271.578 325.915C270.648 324.085 270.183 321.775 270.183 318.985C270.183 316.165 270.633 313.855 271.533 312.055C272.463 310.255 273.723 308.92 275.313 308.05C276.903 307.15 278.718 306.7 280.758 306.7C283.128 306.7 285.213 307.21 287.013 308.23C288.843 309.25 290.283 310.675 291.333 312.505C292.413 314.335 292.953 316.495 292.953 318.985C292.953 321.475 292.413 323.65 291.333 325.51C290.283 327.34 288.843 328.765 287.013 329.785C285.213 330.805 283.128 331.315 280.758 331.315ZM267.438 339.73V306.97H272.793V312.64L272.613 319.03L273.063 325.42V339.73H267.438ZM280.128 326.5C281.478 326.5 282.678 326.2 283.728 325.6C284.808 325 285.663 324.13 286.293 322.99C286.923 321.85 287.238 320.515 287.238 318.985C287.238 317.425 286.923 316.09 286.293 314.98C285.663 313.84 284.808 312.97 283.728 312.37C282.678 311.77 281.478 311.47 280.128 311.47C278.778 311.47 277.563 311.77 276.483 312.37C275.403 312.97 274.548 313.84 273.918 314.98C273.288 316.09 272.973 317.425 272.973 318.985C272.973 320.515 273.288 321.85 273.918 322.99C274.548 324.13 275.403 325 276.483 325.6C277.563 326.2 278.778 326.5 280.128 326.5ZM309.756 331.315C307.086 331.315 304.746 330.79 302.736 329.74C300.756 328.66 299.211 327.19 298.101 325.33C297.021 323.47 296.481 321.355 296.481 318.985C296.481 316.585 297.006 314.47 298.056 312.64C299.136 310.78 300.606 309.325 302.466 308.275C304.356 307.225 306.501 306.7 308.901 306.7C311.241 306.7 313.326 307.21 315.156 308.23C316.986 309.25 318.426 310.69 319.476 312.55C320.526 314.41 321.051 316.6 321.051 319.12C321.051 319.36 321.036 319.63 321.006 319.93C321.006 320.23 320.991 320.515 320.961 320.785H300.936V317.05H317.991L315.786 318.22C315.816 316.84 315.531 315.625 314.931 314.575C314.331 313.525 313.506 312.7 312.456 312.1C311.436 311.5 310.251 311.2 308.901 311.2C307.521 311.2 306.306 311.5 305.256 312.1C304.236 312.7 303.426 313.54 302.826 314.62C302.256 315.67 301.971 316.915 301.971 318.355V319.255C301.971 320.695 302.301 321.97 302.961 323.08C303.621 324.19 304.551 325.045 305.751 325.645C306.951 326.245 308.331 326.545 309.891 326.545C311.241 326.545 312.456 326.335 313.536 325.915C314.616 325.495 315.576 324.835 316.416 323.935L319.431 327.4C318.351 328.66 316.986 329.635 315.336 330.325C313.716 330.985 311.856 331.315 309.756 331.315ZM327.204 331V306.97H332.829V316.735H344.934V306.97H350.559V331H344.934V321.505H332.829V331H327.204ZM374.567 328.39V311.74H365.342L365.207 315.61C365.147 316.99 365.057 318.325 364.937 319.615C364.817 320.875 364.622 322.045 364.352 323.125C364.082 324.175 363.692 325.045 363.182 325.735C362.672 326.425 361.997 326.875 361.157 327.085L355.577 326.23C356.477 326.23 357.197 325.945 357.737 325.375C358.307 324.775 358.742 323.965 359.042 322.945C359.372 321.895 359.612 320.71 359.762 319.39C359.912 318.04 360.017 316.645 360.077 315.205L360.392 306.97H380.192V328.39H374.567ZM354.722 336.355V326.23H383.747V336.355H378.482V331H359.942V336.355H354.722ZM413.026 331V306.97H418.651V331H413.026ZM400.471 314.89C403.561 314.89 405.901 315.58 407.491 316.96C409.111 318.34 409.921 320.29 409.921 322.81C409.921 325.42 409.021 327.46 407.221 328.93C405.451 330.37 402.931 331.075 399.661 331.045L388.771 331V306.97H394.396V314.845L400.471 314.89ZM399.166 326.905C400.816 326.935 402.076 326.59 402.946 325.87C403.816 325.15 404.251 324.1 404.251 322.72C404.251 321.34 403.816 320.35 402.946 319.75C402.106 319.12 400.846 318.79 399.166 318.76L394.396 318.715V326.86L399.166 326.905Z" fill="#F0F6FF"/>
<path d="M6.17395 194.267C5.76303 191.302 5.55757 189.82 5.97758 188.607C6.34704 187.541 7.04461 186.619 7.97032 185.973C9.0227 185.239 10.505 185.034 13.4697 184.623L68.8536 176.946C71.8183 176.536 73.3006 176.33 74.5129 176.75C75.5793 177.12 76.5014 177.817 77.147 178.743C77.8809 179.795 78.0863 181.278 78.4973 184.242L86.1737 239.626C86.5847 242.591 86.7901 244.073 86.3701 245.285C86.0006 246.352 85.3031 247.274 84.3774 247.919C83.325 248.653 81.8426 248.859 78.878 249.27L23.4941 256.946C20.5294 257.357 19.0471 257.563 17.8347 257.143C16.7683 256.773 15.8463 256.076 15.2007 255.15C14.4668 254.097 14.2613 252.615 13.8504 249.65L6.17395 194.267Z" fill="#1C355A"/>
<path fill-rule="evenodd" clip-rule="evenodd" d="M20.5076 172.416C20.0254 173.362 20.0254 174.601 20.0254 177.079V184.822V187.389V234.446C20.0254 237.44 20.0254 238.937 20.6081 240.081C21.1206 241.087 21.9384 241.905 22.9443 242.417C24.0879 243 25.5849 243 28.5789 243H84.4719C87.4659 243 88.9629 243 90.1064 242.417C91.1124 241.905 91.9302 241.087 92.4427 240.081C93.0254 238.937 93.0254 237.44 93.0254 234.446V184.822C93.0254 181.828 93.0254 180.331 92.4427 179.188C91.9302 178.182 91.1124 177.364 90.1064 176.851C88.9629 176.269 87.4659 176.269 84.4719 176.269H46.8758L46.4528 174.937L46.4528 174.937C45.8898 173.163 45.6082 172.277 45.0704 171.62C44.5955 171.041 43.9813 170.591 43.2852 170.314C42.4968 170 41.5665 170 39.7059 170H27.1042C24.6264 170 23.3875 170 22.4411 170.482C21.6086 170.906 20.9318 171.583 20.5076 172.416Z" fill="#C5E6FF"/>
<path d="M464.879 87.5574C464.668 83.9893 464.562 82.2052 465.171 80.8015C465.707 79.5668 466.617 78.5348 467.771 77.8535C469.083 77.0789 470.854 76.9739 474.397 76.7639L533.123 73.2838C536.666 73.0738 538.437 72.9688 539.832 73.583C541.058 74.1233 542.084 75.0406 542.761 76.2034C543.532 77.5254 543.637 79.3094 543.849 82.8775L545.96 118.511C546.172 122.079 546.278 123.863 545.669 125.267C545.133 126.502 544.223 127.534 543.069 128.215C541.757 128.99 539.986 129.095 536.442 129.305L477.717 132.785C474.174 132.995 472.403 133.1 471.008 132.486C469.782 131.945 468.756 131.028 468.079 129.865C467.308 128.543 467.203 126.759 466.991 123.191L464.879 87.5574Z" fill="#1C355A"/>
<path d="M551.821 90.4631L538.402 91.2583C536.455 91.3737 534.969 93.0415 535.084 94.9833L536.908 125.748C537.023 127.69 538.695 129.171 540.642 129.056L565.987 127.554C567.935 127.438 569.42 125.77 569.305 123.829L568.701 113.629C568.664 113.011 568.465 112.414 568.123 111.897L554.978 92.0382C554.283 90.9888 553.08 90.3885 551.821 90.4631Z" fill="#1C355A"/>
<path d="M563.538 129.392C563.859 134.797 559.586 139.447 553.994 139.779C548.403 140.11 543.61 135.997 543.29 130.592C542.97 125.187 547.243 120.537 552.834 120.205C558.426 119.874 563.218 123.987 563.538 129.392Z" fill="#1C355A"/>
<path fill-rule="evenodd" clip-rule="evenodd" d="M553.765 135.907C557.144 135.707 559.727 132.896 559.533 129.629C559.34 126.363 556.443 123.877 553.064 124.077C549.684 124.277 547.102 127.088 547.295 130.355C547.489 133.621 550.385 136.107 553.765 135.907ZM553.994 139.779C559.586 139.447 563.859 134.797 563.538 129.392C563.218 123.987 558.426 119.874 552.834 120.205C547.243 120.537 542.97 125.187 543.29 130.592C543.61 135.997 548.403 140.11 553.994 139.779Z" fill="#1C355A"/>
<path d="M502.118 133.032C502.438 138.437 498.165 143.087 492.573 143.418C486.982 143.75 482.189 139.637 481.869 134.232C481.549 128.827 485.822 124.176 491.413 123.845C497.005 123.513 501.797 127.627 502.118 133.032Z" fill="#1C355A"/>
<path fill-rule="evenodd" clip-rule="evenodd" d="M492.344 139.547C495.723 139.346 498.306 136.536 498.112 133.269C497.919 130.002 495.022 127.516 491.643 127.717C488.263 127.917 485.681 130.727 485.874 133.994C486.068 137.261 488.964 139.747 492.344 139.547ZM492.573 143.418C498.165 143.087 502.438 138.437 502.118 133.032C501.797 127.627 497.005 123.513 491.413 123.845C485.822 124.176 481.549 128.827 481.869 134.232C482.189 139.637 486.982 143.75 492.573 143.418Z" fill="#1C355A"/>
<path d="M460.385 76.2085C460.472 72.6352 460.515 70.8485 461.238 69.5004C461.875 68.3145 462.867 67.3619 464.074 66.7789C465.446 66.1162 467.22 66.1591 470.769 66.2448L529.58 67.6648C533.128 67.7504 534.902 67.7933 536.24 68.5214C537.418 69.1619 538.363 70.1614 538.942 71.3766C539.599 72.7581 539.556 74.5447 539.47 78.118L538.608 113.804C538.522 117.377 538.479 119.164 537.756 120.512C537.119 121.698 536.126 122.65 534.919 123.233C533.547 123.896 531.773 123.853 528.225 123.768L469.414 122.348C465.866 122.262 464.092 122.219 462.753 121.491C461.576 120.85 460.63 119.851 460.052 118.636C459.394 117.254 459.437 115.468 459.524 111.894L460.385 76.2085Z" fill="#C5E6FF"/>
<path d="M546.782 86.3409L533.344 86.0164C531.394 85.9693 529.774 87.5076 529.727 89.4523L528.984 120.262C528.937 122.207 530.48 123.822 532.43 123.869L557.812 124.482C559.762 124.529 561.382 122.991 561.429 121.046L561.675 110.832C561.69 110.213 561.541 109.601 561.243 109.058L549.797 88.1733C549.192 87.0697 548.043 86.3713 546.782 86.3409Z" fill="#C5E6FF"/>
<path d="M555.219 126.111C555.089 131.524 550.443 135.802 544.843 135.667C539.244 135.532 534.81 131.034 534.941 125.621C535.072 120.208 539.717 115.929 545.317 116.065C550.916 116.2 555.35 120.698 555.219 126.111Z" fill="#C5E6FF"/>
<path fill-rule="evenodd" clip-rule="evenodd" d="M544.937 131.789C548.322 131.871 551.129 129.285 551.208 126.014C551.287 122.742 548.608 120.024 545.223 119.942C541.839 119.86 539.031 122.446 538.952 125.718C538.873 128.989 541.553 131.708 544.937 131.789ZM544.843 135.667C550.443 135.802 555.089 131.524 555.219 126.111C555.35 120.698 550.916 116.2 545.317 116.065C539.717 115.929 535.072 120.208 534.941 125.621C534.81 131.034 539.244 135.532 544.843 135.667Z" fill="#C5E6FF"/>
<path d="M493.708 124.625C493.578 130.038 488.932 134.317 483.333 134.181C477.733 134.046 473.3 129.549 473.43 124.136C473.561 118.723 478.206 114.444 483.806 114.579C489.406 114.714 493.839 119.212 493.708 124.625Z" fill="#C5E6FF"/>
<path fill-rule="evenodd" clip-rule="evenodd" d="M483.426 130.304C486.811 130.386 489.618 127.8 489.697 124.528C489.776 121.257 487.097 118.538 483.712 118.457C480.328 118.375 477.52 120.961 477.441 124.232C477.362 127.504 480.042 130.222 483.426 130.304ZM483.333 134.181C488.932 134.317 493.578 130.038 493.708 124.625C493.839 119.212 489.406 114.714 483.806 114.579C478.206 114.444 473.561 118.723 473.43 124.136C473.3 129.549 477.733 134.046 483.333 134.181Z" fill="#C5E6FF"/>
<circle cx="401.898" cy="555.82" r="9.67799" transform="rotate(-15.3767 401.898 555.82)" fill="#C5E6FF"/>
<path d="M409.126 592.308L397.388 563.752L409.83 560.33L414.745 590.763L409.126 592.308Z" fill="#C5E6FF"/>
<path d="M410.162 618.12L409.715 619.015L410.162 618.12ZM436.218 610.696C436.602 610.3 436.593 609.667 436.196 609.282C435.8 608.898 435.167 608.907 434.782 609.304L436.218 610.696ZM411.6 591.293C412.939 598.18 410.188 603.483 408.053 607.879C407.525 608.967 407.026 610.021 406.658 611.015C406.292 612.007 406.032 613.003 406.025 613.976C406.017 614.974 406.275 615.931 406.908 616.809C407.529 617.668 408.466 618.39 409.715 619.015L410.61 617.226C409.54 616.691 408.902 616.153 408.53 615.638C408.171 615.141 408.02 614.61 408.025 613.992C408.03 613.348 408.205 612.601 408.534 611.708C408.863 610.818 409.322 609.846 409.852 608.753C411.952 604.429 415.047 598.542 413.563 590.912L411.6 591.293ZM409.715 619.015C414.305 621.31 419.881 620.289 424.7 618.269C429.55 616.236 433.902 613.082 436.218 610.696L434.782 609.304C432.662 611.488 428.539 614.491 423.927 616.424C419.282 618.371 414.407 619.125 410.61 617.226L409.715 619.015Z" fill="#1C355A"/>
<rect x="438.006" y="528" width="65.3264" height="82.2629" rx="13" transform="rotate(1.56314 438.006 528)" fill="#1C355A"/>
<rect x="426.11" y="536.988" width="65.3264" height="82.2629" rx="10" transform="rotate(-4.45524 426.11 536.988)" fill="#C5E6FF"/>
<path d="M106.5 217.5C135.667 225.334 213 233.8 289 205C384 169 441.5 100.5 426.5 76.5002C414.5 57.3002 393.833 68.5002 385 76.5002" stroke="#C5E6FF" stroke-width="3" stroke-linecap="round"/>
<path d="M171.5 507C169.167 522.5 174.2 554 213 556C261.5 558.5 405.5 447.5 449 453.5C483.8 458.3 479.167 496.167 472.5 514.5" stroke="#C5E6FF" stroke-width="3" stroke-linecap="round"/>
<circle cx="106.5" cy="217.5" r="7.5" fill="#C5E6FF"/>
<circle cx="428.5" cy="87.5" r="7.5" fill="#C5E6FF"/>
<circle cx="473.5" cy="512.5" r="7.5" fill="#C5E6FF"/>
<defs>
<linearGradient id="paint0_linear_4056_271" x1="486.325" y1="156.251" x2="140.961" y2="551.179" gradientUnits="userSpaceOnUse">
<stop stop-color="#1B355A"/>
<stop offset="1" stop-color="#162842"/>
</linearGradient>
<linearGradient id="paint1_linear_4056_271" x1="422.019" y1="229.931" x2="221.033" y2="459.761" gradientUnits="userSpaceOnUse">
<stop stop-color="#162842"/>
<stop offset="1" stop-color="#1B355A"/>
</linearGradient>
</defs>
</svg>
