<svg width="16" height="15" viewBox="0 0 16 15" fill="none" xmlns="http://www.w3.org/2000/svg">
<rect x="0.5" y="0.5" width="14.4395" height="13.957" rx="3.5" fill="#333D61" stroke="#333D61"/>
<path d="M7.51512 3.35C7.67633 2.97041 8.21432 2.97041 8.37554 3.35L9.21366 5.32338C9.28119 5.48239 9.43093 5.59119 9.60304 5.60628L11.7388 5.79357C12.1496 5.82959 12.3159 6.34126 12.0047 6.61188L10.3869 8.01878C10.2565 8.13215 10.1993 8.30819 10.2382 8.47653L10.7201 10.5657C10.8127 10.9675 10.3775 11.2837 10.024 11.0714L8.18598 9.96754C8.03787 9.87859 7.85278 9.87859 7.70468 9.96754L5.8667 11.0714C5.51316 11.2837 5.07791 10.9675 5.1706 10.5657L5.65248 8.47653C5.69131 8.30819 5.63411 8.13215 5.50375 8.01878L3.88594 6.61188C3.57475 6.34126 3.741 5.82959 4.15183 5.79357L6.28762 5.60628C6.45972 5.59119 6.60946 5.48239 6.677 5.32338L7.51512 3.35Z" fill="white"/>
</svg>
