<svg width="34" height="40" viewBox="0 0 34 40" fill="none" xmlns="http://www.w3.org/2000/svg">
<rect y="4" width="33.0323" height="32" rx="4" fill="#333D61"/>
<path d="M16.0804 11.1672C16.4253 10.3551 17.5763 10.3551 17.9212 11.1672L19.7144 15.3892C19.8588 15.7294 20.1792 15.9622 20.5474 15.9944L25.1169 16.3951C25.9958 16.4722 26.3515 17.5669 25.6857 18.1459L22.2245 21.1559C21.9456 21.3985 21.8232 21.7751 21.9063 22.1353L22.9372 26.6049C23.1356 27.4646 22.2044 28.1412 21.448 27.6869L17.5157 25.3252C17.1988 25.1349 16.8028 25.1349 16.4859 25.3252L12.5536 27.6869C11.7973 28.1412 10.8661 27.4646 11.0644 26.6049L12.0953 22.1353C12.1784 21.7751 12.056 21.3985 11.7771 21.1559L8.31587 18.1459C7.65009 17.5669 8.00577 16.4722 8.88472 16.3951L13.4542 15.9944C13.8224 15.9622 14.1428 15.7294 14.2873 15.3892L16.0804 11.1672Z" fill="white"/>
</svg>
