<svg width="57" height="41" viewBox="0 0 57 41" fill="none" xmlns="http://www.w3.org/2000/svg">
<path d="M3.01377 11.0658C2.90538 9.23671 2.85118 8.32217 3.16324 7.60261C3.43774 6.96966 3.90424 6.44064 4.49589 6.09136C5.16851 5.69429 6.07663 5.64047 7.89287 5.53284L37.9967 3.74884C39.8129 3.64121 40.721 3.58739 41.4358 3.90224C42.0646 4.1792 42.5903 4.64942 42.9377 5.24551C43.3325 5.92318 43.3867 6.83773 43.4951 8.66681L44.5776 26.9334C44.686 28.7625 44.7402 29.677 44.4281 30.3966C44.1536 31.0295 43.6871 31.5586 43.0955 31.9078C42.4229 32.3049 41.5148 32.3587 39.6985 32.4664L9.59471 34.2504C7.77848 34.358 6.87036 34.4118 6.15555 34.097C5.52679 33.82 5.00107 33.3498 4.65373 32.7537C4.25887 32.076 4.20467 31.1615 4.09628 29.3324L3.01377 11.0658Z" fill="#C5E6FF"/>
<path d="M47.5818 12.5555L40.7032 12.9632C39.7048 13.0224 38.9433 13.8773 39.0023 14.8727L39.9369 30.6436C39.9959 31.639 40.8531 32.398 41.8514 32.3389L54.8438 31.5689C55.8422 31.5098 56.6036 30.6548 56.5447 29.6594L56.2348 24.4311C56.216 24.1143 56.1139 23.8081 55.9386 23.5433L49.2 13.363C48.844 12.825 48.2272 12.5173 47.5818 12.5555Z" fill="#C5E6FF"/>
<path d="M53.5883 32.5112C53.7525 35.2819 51.562 37.6658 48.6957 37.8356C45.8294 38.0055 43.3726 35.8971 43.2084 33.1263C43.0442 30.3555 45.2347 27.9717 48.101 27.8018C50.9674 27.632 53.4241 29.7404 53.5883 32.5112Z" fill="#C5E6FF"/>
<path fill-rule="evenodd" clip-rule="evenodd" d="M48.5781 35.8509C50.3104 35.7483 51.6344 34.3075 51.5351 32.6328C51.4359 30.9582 49.951 29.6839 48.2187 29.7865C46.4863 29.8892 45.1624 31.33 45.2616 33.0046C45.3608 34.6793 46.8457 35.9536 48.5781 35.8509ZM48.6957 37.8356C51.562 37.6658 53.7525 35.2819 53.5883 32.5112C53.4241 29.7404 50.9674 27.632 48.101 27.8018C45.2347 27.9717 43.0442 30.3555 43.2084 33.1263C43.3726 35.8971 45.8294 38.0055 48.6957 37.8356Z" fill="#C5E6FF"/>
<path d="M22.1029 34.3769C22.2671 37.1477 20.0766 39.5315 17.2103 39.7014C14.344 39.8712 11.8873 37.7628 11.7231 34.992C11.5589 32.2212 13.7494 29.8374 16.6157 29.6675C19.482 29.4977 21.9387 31.6061 22.1029 34.3769Z" fill="#C5E6FF"/>
<path fill-rule="evenodd" clip-rule="evenodd" d="M17.0927 37.7167C18.8251 37.614 20.149 36.1732 20.0498 34.4986C19.9505 32.8239 18.4657 31.5496 16.7333 31.6522C15.0009 31.7549 13.677 33.1957 13.7762 34.8703C13.8755 36.545 15.3603 37.8193 17.0927 37.7167ZM17.2103 39.7014C20.0766 39.5315 22.2671 37.1477 22.1029 34.3769C21.9387 31.6061 19.482 29.4977 16.6157 29.6675C13.7494 29.8374 11.5589 32.2212 11.7231 34.992C11.8873 37.7628 14.344 39.8712 17.2103 39.7014Z" fill="#C5E6FF"/>
<path d="M0.710559 5.24824C0.754787 3.41648 0.776902 2.5006 1.14778 1.80951C1.474 1.20161 1.98292 0.713254 2.60159 0.414437C3.30493 0.0747278 4.21438 0.0966867 6.03327 0.140605L36.1811 0.868535C38 0.912452 38.9094 0.934411 39.5956 1.30767C40.1991 1.636 40.6838 2.14835 40.9804 2.77128C41.3174 3.47947 41.2953 4.39535 41.2511 6.22711L40.8094 24.5204C40.7652 26.3522 40.7431 27.2681 40.3722 27.9592C40.046 28.5671 39.537 29.0554 38.9184 29.3542C38.215 29.6939 37.3056 29.672 35.4867 29.6281L5.33886 28.9001C3.51997 28.8562 2.61052 28.8343 1.9244 28.461C1.32087 28.1327 0.836116 27.6203 0.539605 26.9974C0.202518 26.2892 0.224632 25.3733 0.26886 23.5416L0.710559 5.24824Z" fill="#1C355A"/>
<path d="M44.9998 10.4425L38.1111 10.2761C37.1113 10.252 36.2813 11.0406 36.2572 12.0374L35.8758 27.8314C35.8518 28.8283 36.6428 29.656 37.6426 29.6801L50.654 29.9943C51.6538 30.0185 52.4838 29.2299 52.5079 28.233L52.6343 22.997C52.6419 22.6798 52.5656 22.3661 52.413 22.0876L46.5452 11.3818C46.2351 10.8161 45.6461 10.4581 44.9998 10.4425Z" fill="#1C355A"/>
<path d="M49.3245 30.829C49.2575 33.6038 46.8762 35.797 44.0057 35.7277C41.1352 35.6584 38.8625 33.3528 38.9295 30.578C38.9965 27.8031 41.3778 25.6099 44.2483 25.6792C47.1188 25.7485 49.3915 28.0541 49.3245 30.829Z" fill="#1C355A"/>
<path fill-rule="evenodd" clip-rule="evenodd" d="M44.0537 33.7401C45.7886 33.782 47.2278 32.4564 47.2683 30.7793C47.3088 29.1022 45.9352 27.7087 44.2003 27.6668C42.4654 27.6249 41.0261 28.9505 40.9856 30.6276C40.9451 32.3047 42.3187 33.6982 44.0537 33.7401ZM44.0057 35.7277C46.8762 35.797 49.2575 33.6038 49.3245 30.829C49.3915 28.0541 47.1188 25.7485 44.2483 25.6792C41.3778 25.6099 38.9965 27.8031 38.9295 30.578C38.8625 33.3528 41.1352 35.6584 44.0057 35.7277Z" fill="#1C355A"/>
<path d="M17.7923 30.0677C17.7253 32.8425 15.3439 35.0358 12.4734 34.9665C9.60293 34.8972 7.33024 32.5916 7.39724 29.8167C7.46424 27.0419 9.84556 24.8487 12.7161 24.918C15.5866 24.9873 17.8593 27.2929 17.7923 30.0677Z" fill="#1C355A"/>
<path fill-rule="evenodd" clip-rule="evenodd" d="M12.5214 32.9789C14.2563 33.0208 15.6956 31.6952 15.7361 30.0181C15.7766 28.341 14.403 26.9475 12.6681 26.9056C10.9331 26.8637 9.49389 28.1893 9.4534 29.8664C9.4129 31.5435 10.7865 32.937 12.5214 32.9789ZM12.4734 34.9665C15.3439 35.0358 17.7253 32.8425 17.7923 30.0677C17.8593 27.2929 15.5866 24.9873 12.7161 24.918C9.84556 24.8487 7.46424 27.0419 7.39724 29.8167C7.33024 32.5916 9.60293 34.8972 12.4734 34.9665Z" fill="#1C355A"/>
</svg>
