<svg width="499" height="454" viewBox="0 0 499 454" fill="none" xmlns="http://www.w3.org/2000/svg">
<path d="M206.199 75C225.444 41.6666 273.556 41.6667 292.801 75L455.181 356.25C474.426 389.583 450.37 431.25 411.88 431.25H87.1201C48.63 431.25 24.5738 389.583 43.8188 356.25L206.199 75Z" fill="url(#paint0_linear_4072_9)"/>
<path d="M223.519 166C235.066 146 263.934 146 275.481 166L367.712 325.75C379.259 345.75 364.826 370.75 341.732 370.75H157.268C134.174 370.75 119.741 345.75 131.288 325.75L223.519 166Z" fill="url(#paint1_linear_4072_9)"/>
<path d="M197.152 350V331.056L200.096 338.672L180.064 305.2H193.44L207.904 329.456H200.16L214.688 305.2H226.976L207.008 338.672L209.824 331.056V350H197.152ZM230.011 350V305.2H240.443L259.003 335.664H253.499L271.547 305.2H281.979L282.107 350H270.459L270.331 322.928H272.315L258.811 345.584H253.179L239.291 322.928H241.723V350H230.011ZM291.074 350V305.2H303.746V339.952H325.122V350H291.074Z" fill="#192F4F"/>
<path d="M227.535 262.988L190.995 248.372V242.828L227.535 228.212V233.42L193.179 246.944V244.256L227.535 257.78V262.988ZM231.332 283.4L259.052 204.272H264.512L236.792 283.4H231.332ZM267.448 262.988V257.78L301.804 244.256V246.944L267.448 233.42V228.212L303.988 242.828V248.372L267.448 262.988Z" fill="#192F4F"/>
<path d="M336 137.5C352.333 140.333 389.1 155.7 405.5 194.5C426 243 391 302 363.5 317" stroke="#C5E6FF" stroke-width="3" stroke-linecap="round"/>
<defs>
<linearGradient id="paint0_linear_4072_9" x1="249.5" y1="1.40351e-08" x2="250" y2="478" gradientUnits="userSpaceOnUse">
<stop offset="0.0475436" stop-color="#DCF0FE"/>
<stop offset="1" stop-color="#F7FAFF"/>
</linearGradient>
<linearGradient id="paint1_linear_4072_9" x1="250" y1="134" x2="250" y2="379.5" gradientUnits="userSpaceOnUse">
<stop stop-color="#F7FAFF"/>
<stop offset="1" stop-color="#DCF0FE"/>
</linearGradient>
</defs>
</svg>
