<svg width="14" height="14" viewBox="0 0 14 14" fill="none" xmlns="http://www.w3.org/2000/svg">
<path d="M7 14C10.866 14 14 10.866 14 7C14 3.13401 10.866 0 7 0C3.13401 0 0 3.13401 0 7C0 10.866 3.13401 14 7 14Z" fill="#5392C0"/>
<path d="M3.25659 6.57868L7.70423 4.63948C8.14327 4.43748 9.63218 3.79108 9.63218 3.79108C9.63218 3.79108 10.3194 3.50828 10.2621 4.19508C10.243 4.47788 10.0903 5.46768 9.9376 6.53828L9.46038 9.70969C9.46038 9.70969 9.42221 10.1743 9.0977 10.2551C8.77319 10.3359 8.23871 9.97229 8.14327 9.89149C8.06692 9.83089 6.71163 8.92189 6.21532 8.47749C6.0817 8.35629 5.92899 8.11389 6.23441 7.83109C6.9216 7.16449 7.74241 6.33628 8.23871 5.81108C8.46778 5.56868 8.69684 5.00308 7.74241 5.68988L5.05092 7.60889C5.05092 7.60889 4.7455 7.81089 4.17284 7.62909C3.60019 7.44729 2.93208 7.20489 2.93208 7.20489C2.93208 7.20489 2.47396 6.90189 3.25659 6.57868Z" fill="white"/>
</svg>
