<svg width="15" height="15" viewBox="0 0 15 15" fill="none" xmlns="http://www.w3.org/2000/svg">
<path fill-rule="evenodd" clip-rule="evenodd" d="M5.12889 1.86903C4.97022 1.33855 4.71734 1.28668 4.48877 1.24011C4.30188 1.20167 4.08642 1.16655 3.87138 1.13103C3.65617 1.09548 3.29395 1.11153 2.94828 1.35744C2.60243 1.60332 1.64778 2.17814 1.40228 3.62736C1.15675 5.07674 2.07627 6.66824 2.20419 6.89157C2.33233 7.11463 3.88399 10.5259 6.96476 12.2485C9.52515 13.6801 10.1131 13.5765 10.7132 13.6252C11.3134 13.6738 12.7435 13.2282 13.1291 12.5847C13.5146 11.9415 13.6145 11.352 13.5546 11.2154C13.4947 11.0793 13.292 10.9701 12.9941 10.7695C12.6963 10.5689 11.2302 9.59408 10.9509 9.447C10.6716 9.29992 10.4647 9.21528 10.1995 9.47464C9.93443 9.7337 9.20383 10.2949 8.98225 10.4602C8.76059 10.6259 8.56812 10.6194 8.27026 10.4188C7.97247 10.2177 6.98554 9.73526 5.92229 8.52807C5.095 7.58889 4.61051 6.51768 4.47216 6.19168C4.33375 5.86597 4.52891 5.73417 4.71571 5.61406C4.88299 5.50604 5.09678 5.32352 5.28732 5.17818C5.47752 5.03277 5.55212 4.91891 5.693 4.74028C5.83392 4.56134 5.80926 4.38046 5.75351 4.21983C5.69776 4.0592 5.31723 2.49888 5.12889 1.86903Z" fill="#5392C0"/>
</svg>
