<svg width="15" height="20" viewBox="0 0 15 20" fill="none" xmlns="http://www.w3.org/2000/svg">
<path fill-rule="evenodd" clip-rule="evenodd" d="M7.24266 18.9792C7.62883 19.4852 8.37117 19.4852 8.75734 18.9792C10.5684 16.6063 15 10.4732 15 7.27588C15 3.25752 11.866 0 8 0C4.13401 0 1 3.25752 1 7.27588C1 10.4732 5.43163 16.6063 7.24266 18.9792ZM8.17461 10.8501C10.011 10.8501 11.4996 9.36142 11.4996 7.52507C11.4996 5.68873 10.011 4.20007 8.17461 4.20007C6.33826 4.20007 4.84961 5.68873 4.84961 7.52507C4.84961 9.36142 6.33826 10.8501 8.17461 10.8501Z" fill="#5392C0"/>
</svg>
