<svg width="14" height="14" viewBox="0 0 14 14" fill="none" xmlns="http://www.w3.org/2000/svg">
<circle cx="7" cy="7" r="7" fill="#5392C0"/>
<path d="M10.0165 3.9528C9.27335 3.20979 8.28523 2.80038 7.23245 2.79993C5.06305 2.79993 3.29758 4.56336 3.29671 6.73087C3.29646 7.42372 3.47765 8.10004 3.82203 8.69621L3.26367 10.7333L5.35005 10.1866C5.92489 10.4999 6.57212 10.6649 7.23076 10.6652H7.23243H7.23245C9.40151 10.6652 11.1672 8.90145 11.1682 6.73405C11.1685 5.68357 10.7595 4.69587 10.0165 3.9528ZM7.23245 10.0012H7.23118C6.6441 10.0009 6.06838 9.84345 5.56622 9.54572L5.44672 9.47494L4.20862 9.79928L4.53917 8.59359L4.46131 8.46998C4.13383 7.94971 3.96095 7.34848 3.9612 6.73112C3.96192 4.92956 5.4293 3.4639 7.23369 3.4639C8.10747 3.46427 8.92873 3.80457 9.54638 4.42214C10.164 5.0397 10.5039 5.86066 10.5036 6.73377C10.5029 8.53539 9.03542 10.0012 7.23245 10.0012Z" fill="#E0E0E0"/>
<path d="M3.44434 10.5072L3.97719 8.56318C3.64845 7.99424 3.47558 7.34876 3.47578 6.68769C3.47665 4.61923 5.16148 2.9364 7.23161 2.9364C8.23635 2.93685 9.17935 3.32755 9.88836 4.03663C10.5975 4.74572 10.9878 5.68824 10.9874 6.69062C10.9866 8.75913 9.30163 10.4421 7.23176 10.4421H7.23009C6.60153 10.4419 5.98392 10.2842 5.43537 9.98554L3.44434 10.5072Z" fill="#5392C0"/>
<path fill-rule="evenodd" clip-rule="evenodd" d="M6.25941 5.06195C6.1866 4.9002 6.10993 4.89696 6.04066 4.89413C5.984 4.8917 5.91913 4.89185 5.85437 4.89185C5.78955 4.89185 5.68423 4.91618 5.59516 5.01338C5.50604 5.11057 5.25488 5.34553 5.25488 5.8234C5.25488 6.30131 5.60326 6.76309 5.65182 6.82795C5.70043 6.89271 6.32433 7.90471 7.3124 8.29403C8.13357 8.61758 8.30068 8.55322 8.47892 8.53703C8.65716 8.52084 9.05405 8.30213 9.13507 8.07531C9.21609 7.84854 9.21609 7.65416 9.19178 7.61353C9.16748 7.57305 9.10266 7.54877 9.00544 7.5002C8.90822 7.45163 8.43031 7.21661 8.34119 7.18423C8.25207 7.15185 8.18725 7.13566 8.12244 7.23291C8.05762 7.33005 7.87143 7.54877 7.81472 7.61353C7.758 7.67844 7.70129 7.68653 7.60407 7.63796C7.50685 7.58924 7.19376 7.48678 6.82234 7.15589C6.53336 6.89847 6.33825 6.58053 6.28154 6.48329C6.22483 6.38615 6.27546 6.33353 6.32423 6.28511C6.36787 6.2416 6.42145 6.17173 6.47006 6.11501C6.51857 6.05829 6.53477 6.01782 6.56718 5.95305C6.59959 5.88819 6.58338 5.83148 6.55908 5.78291C6.53477 5.73434 6.34585 5.254 6.25941 5.06195Z" fill="white"/>
<path d="M9.98485 3.9403C9.25026 3.20582 8.27348 2.80112 7.2328 2.80066C5.08829 2.80066 3.34309 4.54385 3.34223 6.68647C3.34198 7.37138 3.52108 8.03993 3.86151 8.62926L3.30957 10.6429L5.372 10.1026C5.94025 10.4122 6.58004 10.5754 7.23113 10.5756H7.23278H7.2328C9.37696 10.5756 11.1224 8.83213 11.1233 6.68961C11.1237 5.65121 10.7193 4.67484 9.98485 3.9403ZM7.2328 9.91932H7.23154C6.65119 9.91901 6.08208 9.76333 5.58569 9.46903L5.46755 9.39905L4.24366 9.71967L4.57042 8.52782L4.49345 8.40563C4.16974 7.89134 3.99884 7.297 3.99909 6.68673C3.9998 4.90585 5.45034 3.45703 7.23402 3.45703C8.09778 3.45738 8.90959 3.79378 9.52016 4.40426C10.1307 5.01474 10.4667 5.82627 10.4664 6.68937C10.4656 8.47029 9.01506 9.91932 7.2328 9.91932Z" fill="white"/>
</svg>
