<svg width="55" height="58" viewBox="0 0 55 58" fill="none" xmlns="http://www.w3.org/2000/svg">
<path d="M42.4852 1.79419H13.5293C11.3202 1.79419 9.5293 3.58505 9.5293 5.79419V52.5883C9.5293 54.7974 11.3202 56.5883 13.5293 56.5883H49.2058C51.4149 56.5883 53.2058 54.7974 53.2058 52.5883V12.9118" stroke="#333D61" stroke-width="2" stroke-linecap="round"/>
<rect x="1" y="28.2058" width="40.8824" height="19.4412" rx="3" fill="#EDF6FF" stroke="#333D61" stroke-width="2"/>
<path d="M9.49748 42.7939V34.3939H12.9535C13.6975 34.3939 14.3335 34.5139 14.8615 34.7539C15.3975 34.9939 15.8095 35.3379 16.0975 35.7859C16.3855 36.2339 16.5295 36.7659 16.5295 37.3819C16.5295 37.9979 16.3855 38.5299 16.0975 38.9779C15.8095 39.4259 15.3975 39.7699 14.8615 40.0099C14.3335 40.2499 13.6975 40.3699 12.9535 40.3699H10.3615L11.0575 39.6379V42.7939H9.49748ZM11.0575 39.8059L10.3615 39.0499H12.8815C13.5695 39.0499 14.0855 38.9059 14.4295 38.6179C14.7815 38.3219 14.9575 37.9099 14.9575 37.3819C14.9575 36.8459 14.7815 36.4339 14.4295 36.1459C14.0855 35.8579 13.5695 35.7139 12.8815 35.7139H10.3615L11.0575 34.9459V39.8059ZM18.0873 42.7939V34.3939H21.7593C22.6713 34.3939 23.4713 34.5699 24.1593 34.9219C24.8473 35.2739 25.3833 35.7619 25.7673 36.3859C26.1513 37.0099 26.3433 37.7459 26.3433 38.5939C26.3433 39.4339 26.1513 40.1699 25.7673 40.8019C25.3833 41.4259 24.8473 41.9139 24.1593 42.2659C23.4713 42.6179 22.6713 42.7939 21.7593 42.7939H18.0873ZM19.6473 41.4739H21.6873C22.3193 41.4739 22.8633 41.3539 23.3193 41.1139C23.7833 40.8739 24.1393 40.5379 24.3873 40.1059C24.6433 39.6739 24.7713 39.1699 24.7713 38.5939C24.7713 38.0099 24.6433 37.5059 24.3873 37.0819C24.1393 36.6499 23.7833 36.3139 23.3193 36.0739C22.8633 35.8339 22.3193 35.7139 21.6873 35.7139H19.6473V41.4739ZM29.4294 38.2579H33.6174V39.5779H29.4294V38.2579ZM29.5614 42.7939H28.0014V34.3939H34.1334V35.7019H29.5614V42.7939Z" fill="#333D61"/>
<path d="M52.421 12.0219L43.8174 2.84484C43.1974 2.18349 42.0879 2.62225 42.0879 3.52878V12.7059C42.0879 13.2582 42.5356 13.7059 43.0879 13.7059H51.6914C52.5669 13.7059 53.0197 12.6606 52.421 12.0219Z" stroke="#333D61" stroke-width="2"/>
</svg>
