<svg width="192" height="194" viewBox="0 0 192 194" fill="none" xmlns="http://www.w3.org/2000/svg">
<path fill-rule="evenodd" clip-rule="evenodd" d="M192 97.4312C192 150.565 149.02 193.638 96.0013 193.638C42.9804 193.638 0 150.565 0 97.4312C0 44.2998 42.9804 1.22754 96.0013 1.22754C149.02 1.22754 192 44.2998 192 97.4312Z" fill="#E51038"/>
<path fill-rule="evenodd" clip-rule="evenodd" d="M189.778 90.5571C189.778 140.571 149.32 181.114 99.4134 181.114C49.5064 181.114 9.04932 140.571 9.04932 90.5571C9.04932 40.5435 49.5064 0 99.4134 0C149.32 0 189.778 40.5435 189.778 90.5571Z" fill="#FEFEFE"/>
<path fill-rule="evenodd" clip-rule="evenodd" d="M177.161 94.4712C177.161 139.731 140.548 176.42 95.3869 176.42C50.226 176.42 13.6157 139.731 13.6157 94.4712C13.6157 49.2138 50.226 12.5254 95.3869 12.5254C140.551 12.5254 177.161 49.2138 177.161 94.4712Z" fill="#181541"/>
<path fill-rule="evenodd" clip-rule="evenodd" d="M94.0658 29.5761C115.08 29.5761 134.196 36.8953 148.45 48.8543C135.628 33.8883 116.615 24.4077 95.3868 24.4077C77.4522 24.4077 61.0995 31.1773 48.7256 42.3014C61.6031 34.2794 77.2228 29.5761 94.0658 29.5761Z" fill="#6B96C7"/>
<path fill-rule="evenodd" clip-rule="evenodd" d="M77.2521 130.579C46.345 113.509 28.2864 86.9435 36.9189 71.2455C45.5514 55.5476 77.6081 56.6574 108.515 73.7293C139.425 90.7986 157.481 117.362 148.848 133.062C140.213 148.76 108.159 147.648 77.2521 130.579ZM108.159 72.7834C75.6253 54.813 41.8838 53.6425 32.7951 70.1675C23.7092 86.6925 42.7169 114.656 75.2509 132.624C107.782 150.591 141.526 151.762 150.612 135.234C159.701 118.712 140.693 90.751 108.159 72.7834Z" fill="#FEFEFE"/>
<path fill-rule="evenodd" clip-rule="evenodd" d="M51.7238 139.197C41.6122 124.379 57.0657 96.1615 86.2379 76.1672C115.413 56.1781 147.258 51.9822 157.373 66.8002C167.482 81.6183 152.026 109.838 122.853 129.83C93.6812 149.819 61.8355 154.015 51.7238 139.197ZM50.1708 141.535C60.8151 157.135 94.3378 152.72 125.047 131.677C155.754 110.631 172.022 80.9286 161.378 65.3285C150.736 49.7309 117.214 54.1489 86.5042 75.1922C55.7949 96.2329 39.5292 125.938 50.1708 141.535Z" fill="#FEFEFE"/>
<path fill-rule="evenodd" clip-rule="evenodd" d="M44.1037 66.9738C44.1037 70.393 41.3352 73.1648 37.9233 73.1648C34.5115 73.1648 31.7456 70.393 31.7456 66.9738C31.7456 63.5521 34.5115 60.7803 37.9233 60.7803C41.3352 60.7803 44.1037 63.5521 44.1037 66.9738Z" fill="#FEFEFE"/>
<path fill-rule="evenodd" clip-rule="evenodd" d="M136.4 125.747C136.4 128.944 133.814 131.539 130.621 131.539C127.43 131.539 124.844 128.944 124.844 125.747C124.844 122.547 127.43 119.955 130.621 119.955C133.814 119.955 136.4 122.547 136.4 125.747Z" fill="#FEFEFE"/>
<path d="M77.4603 64.9111L76.0628 66.2376H125.493L125.031 67.9656C124.891 68.4967 124.812 68.8164 124.741 69.123C124.53 69.9949 124.33 70.8325 124.019 71.6622C123.106 74.1011 121.777 76.1885 120.151 78.0117C118.545 79.8084 116.652 81.3436 114.585 82.7097C111.977 84.4298 109.245 85.7853 106.421 86.866C103.611 87.9415 100.692 88.7526 97.7099 89.3921C97.6809 89.4 97.6572 89.4 97.6361 89.4C97.7099 90.6604 97.6809 91.9366 97.6546 93.2102L97.644 93.7017H97.6493C97.6493 93.9606 97.5807 94.2883 97.4753 94.5736C100.125 93.5405 102.78 92.4836 105.467 91.3236C108.665 89.9443 111.761 88.3774 114.703 86.5648C117.646 84.7495 120.425 82.6991 122.977 80.3554C124.375 79.0765 125.664 77.721 126.771 76.2387C127.858 74.7881 128.77 73.208 129.437 71.4508C130.281 69.2234 130.479 67.1465 130.083 65.2097C129.685 63.2544 128.686 61.3969 127.138 59.6265C125.474 57.7188 123.586 56.1307 121.53 54.7911C119.457 53.4409 117.208 52.339 114.84 51.4195C112.81 50.6321 110.751 50.0191 108.66 49.6439C106.59 49.2687 104.473 49.126 102.303 49.2713C100.146 49.414 98.1924 49.879 96.4891 50.7695C94.8149 51.6441 93.3541 52.952 92.1465 54.7937C91.1156 56.3685 90.0398 57.9381 88.8191 59.4442C87.593 60.9609 86.243 62.3771 84.69 63.6137C83.8278 64.2981 82.8681 64.7024 81.9268 65.0987L81.4337 65.3075C81.1674 65.4211 80.9038 65.4898 80.648 65.5109H80.6427C80.2235 65.5479 79.8254 65.4581 79.4615 65.2414C79.1003 65.0274 78.8234 64.7129 78.6468 64.3034C78.594 64.1792 78.5492 64.0444 78.5149 63.9018L77.4603 64.9111ZM74.5731 65.7619C75.8703 64.5359 77.1676 63.3072 78.449 62.0601C78.5097 61.9993 78.42 61.7826 78.4016 61.6399C78.2223 61.6637 78.0245 61.6505 77.8689 61.7245C76.896 62.1869 75.9204 62.6467 74.9712 63.1566C74.3569 63.4869 73.7874 63.9018 73.1968 64.2822C73.2337 64.3509 73.2706 64.4223 73.3075 64.4936C73.8559 64.3853 74.4017 64.2743 75.1268 64.129C74.792 64.7711 74.5467 65.2361 74.2778 65.754C74.4624 65.7619 74.5441 65.791 74.5731 65.7619ZM101.219 123.879C100.273 123.272 99.284 122.73 98.1371 122.054C98.1371 125.877 98.1186 129.431 98.174 132.985C98.1766 133.278 98.6143 133.667 98.9413 133.836C101.91 135.366 103.105 137.767 102.453 141.01C101.91 143.723 100.544 146.038 98.9413 148.231C98.82 148.397 98.4218 148.519 98.232 148.448C97.0165 147.993 96.418 147.052 96.4127 145.726C96.3758 133.431 96.3389 121.139 96.2993 108.845C96.2967 107.838 96.0119 107.561 95.0653 107.886C94.0133 108.248 93.0193 108.776 91.991 109.204C91.3582 109.468 91.1631 109.899 91.1657 110.586C91.1894 122.022 91.1156 133.46 91.2422 144.896C91.2685 147.34 90.2534 148.725 88.2733 149.711C87.6563 150.017 87.0314 150.318 86.3881 150.567C85.0724 151.074 83.7276 151.513 82.4199 152.046C81.8741 152.268 81.033 152.504 81.3125 153.275C81.4337 153.608 82.2801 153.827 82.8022 153.835C86.1217 153.888 89.4439 153.867 92.7662 153.87C93.0773 153.872 93.3884 153.87 93.6995 153.87C93.7312 153.957 93.7602 154.044 93.7918 154.131C91.9409 156.065 90.1295 158.06 90.3958 160.975C90.6595 163.858 92.6449 165.665 94.7199 167.39C94.4985 166.357 94.1662 165.372 93.8683 164.378C92.9112 161.165 93.4253 158.388 96.2439 156.277C96.8214 155.843 97.3724 155.363 97.8681 154.839C98.5721 154.094 99.3631 153.796 100.407 153.846C102.113 153.93 103.827 153.872 105.538 153.856C105.994 153.851 106.474 153.851 106.901 153.716C107.202 153.621 107.558 153.344 107.648 153.066C107.719 152.852 107.492 152.408 107.271 152.255C106.82 151.949 106.295 151.729 105.778 151.544C104.718 151.169 103.642 150.842 102.456 150.456C102.941 149.896 103.284 149.502 103.627 149.108C105.77 146.627 107.663 143.979 108.821 140.885C110.231 137.112 110.063 133.458 107.822 130.012C106.134 127.415 103.782 125.528 101.219 123.879ZM88.9667 88.2823C89.8869 88.5043 90.1611 88.8874 90.1559 89.8016C90.1479 91.7675 90.2587 93.736 90.3299 95.982C92.3311 95.4324 94.1557 94.9488 95.9644 94.4072C96.1279 94.357 96.2703 93.9474 96.2756 93.7017C96.3072 92.2854 96.3547 90.8638 96.2677 89.4528C96.2123 88.5228 96.5656 88.2347 97.4278 88.0498C103.252 86.8026 108.821 84.8764 113.833 81.5656C117.786 78.9576 121.042 75.7234 122.74 71.184C123.156 70.0663 123.373 68.8772 123.708 67.6116H62.5604C62.6949 68.1664 62.7766 68.5786 62.89 68.9829C64.5933 75.0708 68.4956 79.3804 73.8111 82.5459C78.5228 85.3546 83.6828 87.0008 88.9667 88.2823ZM139.704 65.0829C139.024 60.5275 136.611 56.8811 133.411 53.7051C128.923 49.2528 123.523 46.3304 117.559 44.4174C108.017 41.3576 98.8991 42.042 90.351 47.6278C88.1283 49.0811 85.837 50.4366 83.5774 51.8343C81.708 52.989 79.7542 54.0222 77.9929 55.3248C76.337 56.5509 75.0662 58.1997 73.9799 60.1576C75.3483 60.2474 76.5533 60.332 77.7556 60.4086C79.5327 60.517 79.327 60.3003 79.567 61.9887C79.6302 62.4458 79.7726 62.8924 79.8122 63.3495C79.8728 64.0841 80.3132 64.2955 80.8906 64.0444C81.9057 63.6058 82.9894 63.2148 83.8384 62.5383C86.7809 60.1972 88.9641 57.1533 90.9996 54.0433C93.6785 49.9504 97.5359 48.2144 102.219 47.9026C106.767 47.5987 111.123 48.5077 115.333 50.1433C120.238 52.0484 124.662 54.7118 128.166 58.7228C131.57 62.6229 132.593 66.9853 130.718 71.9344C129.287 75.7023 126.814 78.696 123.9 81.3648C118.627 86.2002 112.525 89.7726 106.008 92.5866C100.249 95.0704 94.335 97.2001 88.5132 99.5438C84.3604 101.216 80.2815 103.032 76.7774 105.93C72.3003 109.635 71.2614 114.885 74.175 119.9C76.7774 124.376 80.7482 127.272 85.4309 129.249C86.7097 129.788 88.0623 130.142 89.3991 130.586C89.4967 130.25 89.5468 130.158 89.5468 130.062C89.56 126.966 89.5573 123.866 89.5942 120.769C89.6021 120.188 89.2752 120.082 88.856 119.919C87.9701 119.573 87.0499 119.269 86.2457 118.78C83.8516 117.321 83.3981 114.417 85.2965 112.346C86.2404 111.315 87.3504 110.393 88.5132 109.614C92.4761 106.955 96.9585 105.365 101.314 103.52C109.219 100.175 117.111 96.8011 124.269 91.971C129.055 88.7421 133.381 85.0243 136.411 80.0145C139.185 75.4248 140.508 70.46 139.704 65.0829ZM74.3253 61.9491L74.9897 61.6003L71.736 61.381L72.7854 59.4918C73.3655 58.4454 73.9983 57.4757 74.7128 56.6011C75.4458 55.7027 76.2606 54.9021 77.1834 54.2204C78.4517 53.285 79.7937 52.4923 81.1384 51.6996C81.7106 51.3614 82.2854 51.0232 82.8575 50.6691C83.8147 50.0772 84.3552 49.7469 84.9089 49.4114C86.5014 48.439 88.0966 47.4666 89.6074 46.4784C94.066 43.5639 98.6855 41.9257 103.437 41.4184C108.172 40.9111 113.026 41.5241 117.978 43.1147C121.055 44.1003 123.984 45.3475 126.719 46.917C129.471 48.4971 132.037 50.4128 134.376 52.7327C136.055 54.4 137.534 56.1994 138.686 58.1891C139.86 60.2105 140.693 62.4247 141.059 64.8821C141.487 67.7437 141.35 70.4996 140.733 73.1498C140.123 75.7816 139.042 78.3023 137.579 80.7227C135.994 83.3465 134.078 85.6215 131.942 87.6534C129.825 89.6695 127.483 91.4531 125.029 93.1098C121.387 95.5672 117.569 97.6493 113.664 99.5385C109.818 101.401 105.834 103.095 101.844 104.784C101.095 105.101 100.202 105.468 99.3078 105.833C98.5088 106.16 97.7126 106.485 96.9216 106.821C97.4647 107.275 97.673 107.928 97.673 108.845H97.6677L97.702 120.207L98.8305 120.873L99.8905 121.491C100.645 121.927 101.343 122.328 101.958 122.725C103.284 123.578 104.568 124.503 105.76 125.571C106.965 126.649 108.056 127.859 108.969 129.264C110.218 131.191 110.893 133.18 111.057 135.218C111.218 137.234 110.877 139.287 110.102 141.361C109.48 143.023 108.673 144.548 107.74 145.98C106.875 147.303 105.892 148.564 104.847 149.785C105.348 149.948 105.818 150.104 106.232 150.25C106.524 150.355 106.825 150.472 107.123 150.609C107.437 150.754 107.745 150.923 108.04 151.124C108.359 151.341 108.652 151.714 108.818 152.073V152.078C109.019 152.511 109.095 153.032 108.947 153.492C108.826 153.87 108.573 154.213 108.267 154.477L108.27 154.48C107.996 154.72 107.645 154.919 107.313 155.024C106.722 155.212 106.145 155.22 105.594 155.225C105.188 155.225 104.779 155.236 104.375 155.241C103.025 155.262 101.675 155.283 100.344 155.215C100.012 155.199 99.7349 155.233 99.5029 155.323C99.284 155.407 99.0731 155.558 98.8595 155.783C98.5985 156.057 98.3137 156.335 98.0052 156.604C97.6757 156.898 97.3619 157.154 97.0639 157.376L97.0613 157.373C95.917 158.232 95.2446 159.202 94.9625 160.264C94.6725 161.363 94.7727 162.616 95.1814 163.984L95.3897 164.671C95.6349 165.467 95.8801 166.267 96.0594 167.108L96.8873 170.976L93.8472 168.45C92.753 167.538 91.6746 166.598 90.7966 165.453V165.448C89.8632 164.23 89.1935 162.83 89.0353 161.099C88.8718 159.31 89.3358 157.82 90.1216 156.488C90.3773 156.052 90.6674 155.637 90.9785 155.238H90.3299C87.8119 155.241 85.2912 155.244 82.7811 155.204C82.3566 155.196 81.7923 155.096 81.3441 154.929C80.7456 154.705 80.234 154.319 80.0284 153.748V153.743C79.3191 151.79 80.6717 151.259 81.758 150.836L81.9057 150.775C82.5886 150.495 83.4112 150.199 84.2365 149.904C84.7718 149.711 85.307 149.515 85.8976 149.288H85.9029C86.1745 149.185 86.4671 149.055 86.773 148.915C87.0314 148.796 87.3452 148.643 87.6668 148.482C88.4367 148.099 89.0063 147.66 89.3596 147.111C89.7103 146.561 89.8869 145.848 89.8764 144.907C89.8289 140.658 89.8104 136.409 89.8025 132.16L88.972 131.886C88.6609 131.783 88.1942 131.637 87.7275 131.492C86.7862 131.201 85.8502 130.913 84.901 130.512C82.4462 129.476 80.1708 128.194 78.1669 126.58C76.1367 124.95 74.3806 122.981 72.9911 120.587C71.3722 117.8 70.8501 114.922 71.3537 112.206C71.8652 109.471 73.4051 106.94 75.9046 104.873C77.7345 103.359 79.7146 102.128 81.7765 101.058C83.7962 100.009 85.8923 99.1211 88.0043 98.2702L89.9001 97.5172L89.0194 97.7576L88.8982 94.1562C88.8402 92.5761 88.7848 91.099 88.7848 89.8016C88.7848 89.6484 88.8533 89.6563 88.8243 89.6193L88.8191 89.614C88.7927 89.5797 88.7874 89.6457 88.6503 89.6114H88.645C85.9556 88.9614 83.2952 88.2163 80.7087 87.2756C78.0904 86.3244 75.5434 85.175 73.1124 83.727C70.3307 82.0703 67.905 80.0991 65.9459 77.7369C63.971 75.3535 62.476 72.587 61.5743 69.3528C61.4899 69.0595 61.4266 68.7768 61.3502 68.4492L61.2315 67.9286L60.8281 66.2376H72.4796L72.5851 66.0394L72.5771 66.042L71.3986 63.8066L72.4611 63.1276L72.9806 62.7814C73.4103 62.4961 73.8428 62.208 74.3253 61.9491ZM98.3164 135.054C98.1371 134.961 97.9367 134.829 97.7468 134.673L97.7785 145.726H97.7837C97.7837 146.122 97.8602 146.437 98.0079 146.661C98.0632 146.743 98.1344 146.82 98.2188 146.891C98.8384 146.009 99.4079 145.113 99.8773 144.193C100.434 143.105 100.871 141.963 101.114 140.743C101.378 139.427 101.283 138.309 100.832 137.39C100.378 136.465 99.5371 135.685 98.3164 135.054ZM89.7999 110.586H89.7946L89.7973 110.409L89.2752 110.752C88.7268 111.12 88.1863 111.527 87.6668 111.968C87.1843 112.378 86.7255 112.813 86.3037 113.276C86.1376 113.458 86.0005 113.635 85.895 113.81C85.5496 114.378 85.4283 114.999 85.5153 115.585C85.6023 116.169 85.9029 116.732 86.3986 117.189C86.57 117.348 86.7572 117.488 86.9523 117.609C87.4823 117.932 88.1573 118.188 88.827 118.442L89.3859 118.656C89.531 118.711 89.6707 118.767 89.8025 118.825C89.8052 116.079 89.8052 113.331 89.7999 110.586ZM97.528 89.3789L97.557 89.3762C97.5465 89.3709 97.5385 89.3683 97.528 89.3789ZM97.5227 89.3842C97.4832 89.4291 97.5174 89.4 97.557 89.3762L97.528 89.3789L97.5227 89.3842Z" fill="#005EA1"/>
<path fill-rule="evenodd" clip-rule="evenodd" d="M74.5732 65.7638C75.8705 64.5378 77.1677 63.3091 78.4491 62.062C78.5098 62.0012 78.4201 61.7845 78.4017 61.6418C78.2224 61.6656 78.0246 61.6524 77.8691 61.7264C76.8961 62.1888 75.9206 62.6486 74.9714 63.1585C74.357 63.4888 73.7875 63.9037 73.1969 64.2842C73.2338 64.3529 73.2707 64.4242 73.3076 64.4955C73.8561 64.3872 74.4018 64.2762 75.1269 64.1309C74.7921 64.773 74.5469 65.238 74.2779 65.7559C74.4625 65.7638 74.5442 65.7929 74.5732 65.7638ZM101.219 123.881C100.273 123.274 99.2842 122.732 98.1372 122.056C98.1372 125.879 98.1187 129.433 98.1741 132.987C98.1767 133.28 98.6144 133.668 98.9414 133.838C101.91 135.367 103.105 137.769 102.453 141.011C101.91 143.725 100.544 146.04 98.9414 148.233C98.8201 148.399 98.422 148.521 98.2321 148.45C97.0166 147.995 96.4181 147.054 96.4128 145.728C96.3759 133.433 96.339 121.141 96.2994 108.847C96.2968 107.84 96.012 107.562 95.0655 107.887C94.0134 108.249 93.0194 108.778 91.9911 109.206C91.3583 109.47 91.1632 109.901 91.1658 110.588C91.1896 122.024 91.1157 133.462 91.2423 144.898C91.2687 147.342 90.2535 148.727 88.2734 149.713C87.6564 150.019 87.0315 150.32 86.3882 150.569C85.0725 151.076 83.7278 151.515 82.42 152.048C81.8742 152.27 81.0331 152.505 81.3126 153.277C81.4339 153.61 82.2802 153.829 82.8023 153.837C86.1219 153.89 89.4441 153.869 92.7663 153.872C93.0774 153.874 93.3885 153.872 93.6997 153.872C93.7313 153.959 93.7603 154.046 93.792 154.133C91.941 156.067 90.1296 158.062 90.3959 160.977C90.6596 163.859 92.645 165.667 94.7201 167.392C94.4986 166.359 94.1664 165.373 93.8684 164.38C92.9113 161.167 93.4255 158.39 96.2441 156.279C96.8215 155.845 97.3726 155.364 97.8683 154.841C98.5722 154.096 99.3632 153.798 100.407 153.848C102.113 153.932 103.827 153.874 105.538 153.858C105.994 153.853 106.474 153.853 106.902 153.718C107.202 153.623 107.558 153.346 107.648 153.068C107.719 152.854 107.492 152.41 107.271 152.257C106.82 151.951 106.295 151.731 105.778 151.546C104.718 151.171 103.643 150.843 102.456 150.458C102.941 149.898 103.284 149.504 103.627 149.11C105.77 146.629 107.664 143.981 108.821 140.887C110.232 137.114 110.063 133.46 107.822 130.014C106.134 127.417 103.782 125.53 101.219 123.881ZM88.9668 88.2842C89.887 88.5062 90.1613 88.8893 90.156 89.8035C90.1481 91.7694 90.2588 93.7379 90.33 95.9839C92.3312 95.4343 94.1558 94.9508 95.9646 94.4091C96.128 94.3589 96.2704 93.9493 96.2757 93.7036C96.3073 92.2873 96.3548 90.8657 96.2678 89.4548C96.2124 88.5247 96.5657 88.2367 97.4279 88.0517C103.252 86.8045 108.821 84.8783 113.833 81.5675C117.786 78.9595 121.042 75.7253 122.74 71.1859C123.157 70.0682 123.373 68.8791 123.708 67.6135H62.5605C62.695 68.1683 62.7768 68.5805 62.8901 68.9848C64.5934 75.0727 68.4957 79.3823 73.8112 82.5478C78.523 85.3565 83.6829 87.0027 88.9668 88.2842ZM139.704 65.0848C139.024 60.5294 136.612 56.8831 133.411 53.707C128.923 49.2547 123.523 46.3323 117.559 44.4193C108.017 41.3595 98.8992 42.0439 90.3511 47.6297C88.1284 49.083 85.8371 50.4385 83.5775 51.8363C81.7081 52.9909 79.7543 54.0241 77.993 55.3267C76.3372 56.5528 75.0663 58.2016 73.98 60.1595C75.3484 60.2494 76.5534 60.3339 77.7557 60.4105C79.5328 60.5189 79.3272 60.3022 79.5671 61.9906C79.6304 62.4478 79.7728 62.8943 79.8123 63.3514C79.873 64.086 80.3133 64.2974 80.8907 64.0463C81.9058 63.6077 82.9895 63.2167 83.8385 62.5402C86.781 60.1992 88.9642 57.1552 90.9997 54.0452C93.6786 49.9523 97.536 48.2163 102.219 47.9045C106.767 47.6006 111.123 48.5096 115.334 50.1452C120.238 52.0503 124.662 54.7137 128.166 58.7247C131.57 62.6248 132.593 66.9872 130.719 71.9363C129.287 75.7042 126.814 78.6979 123.9 81.3667C118.627 86.2021 112.526 89.7745 106.008 92.5885C100.249 95.0723 94.3351 97.202 88.5133 99.5457C84.3606 101.218 80.2816 103.034 76.7775 105.932C72.3004 109.637 71.2616 114.887 74.1751 119.902C76.7775 124.378 80.7483 127.274 85.4311 129.251C86.7099 129.79 88.0625 130.144 89.3993 130.588C89.4968 130.252 89.5469 130.159 89.5469 130.064C89.5601 126.968 89.5575 123.868 89.5944 120.771C89.6023 120.19 89.2753 120.084 88.8561 119.921C87.9702 119.574 87.05 119.271 86.2458 118.782C83.8517 117.323 83.3982 114.419 85.2966 112.348C86.2405 111.317 87.3506 110.395 88.5133 109.616C92.4763 106.957 96.9586 105.367 101.314 103.522C109.219 100.177 117.111 96.803 124.269 91.9729C129.055 88.744 133.382 85.0263 136.411 80.0164C139.185 75.4268 140.509 70.4619 139.704 65.0848Z" fill="#FEFEFE"/>
</svg>
